<?xml version="1.0" encoding="UTF-8"?>
<svg width="1e3" height="1348.6" version="1.1" viewBox="0 0 264.58 356.83" xmlns="http://www.w3.org/2000/svg"><g transform="matrix(.59767 0 0 .59767 402.69 404.76)"><path d="m-443.92-651.67c-9.5878 0-17.306 11.309-17.306 25.356v33.569h-34.613c-9.5878 0-17.306 7.7187-17.306 17.306v59.336c0 9.5878 7.7187 17.306 17.306 17.306h34.613v393.03h34.613v-393.03h84.06c0.79944 0 1.5854-0.0552 2.3554-0.15917 12.274-0.39017 34.133-1.7366 46.075-6.3784 21.147-8.2196 55.176-18.081 55.051-40.952-0.12396-22.688-33.905-31.805-55.051-40.025-17.213-6.6907-55.051-6.5376-55.051-6.5376v0.10283h-77.439v-33.569c0-14.047-7.7187-25.356-17.306-25.356z" fill="#a05a2c" stroke="#fff" stroke-linecap="round" stroke-linejoin="round" stroke-width="16" style="paint-order:stroke markers fill"/><path d="m-443.92-651.67c-9.5878 0-17.306 11.308-17.306 25.355v520.55h34.613v-520.55c0-14.047-7.7187-25.355-17.306-25.355z" fill="#b86733" stroke="#8b4513" stroke-linecap="round" stroke-linejoin="round" stroke-width="6" style="paint-order:stroke markers fill"/><g stroke="#8b4412"><path d="m-349.17-592.85v0.10281h-146.67c-9.5878 0-17.306 7.7187-17.306 17.306v59.337c0 9.5878 7.7187 17.306 17.306 17.306h153.29c0.79943 0 1.5856-0.0549 2.3557-0.15883 12.274-0.39017 34.133-1.7369 46.075-6.3787 21.147-8.2196 55.177-18.081 55.052-40.952-0.12395-22.688-33.905-31.805-55.052-40.025-17.213-6.6907-55.051-6.5375-55.051-6.5375z" fill="#b86733" stroke-linecap="round" stroke-linejoin="round" stroke-width="6" style="paint-order:stroke markers fill"/><g fill="#fff" stroke-width="4.2333" style="paint-order:markers stroke fill" aria-label="Data Science"><path d="m-490.06-563.97q0.0435-0.26088 0.15218-0.36958 0.1087-0.1087 2.1957-0.30436t5.7176-0.19566q3.6523 0 5.6089 2.1088 1.9566 2.087 1.9566 5.7393 0 6.8916-1.5435 15.87-0.82612 4.761-2.674 7.0872-1.6957 2.1305-5.3045 2.8044-1.6305 0.28262-3.9784 0.36957l-5.4132 0.19566q-0.47828-0.0217-0.47828-0.41305zm4.9784 4.1958-2.6523 23.675q3.2392-0.28261 4.4784-1.2609 1.2609-0.9783 1.7609-3.7175 0.50001-2.7392 0.97829-7.4785 0.50002-4.7393 0.50002-7.7612 0-1.7827-0.8696-2.6523-0.86959-0.8696-2.3696-0.8696-1.4783 0-1.8262 0.0652z" style="paint-order:markers stroke fill"/><path d="m-451.58-556.47-2.8262 25.066q-0.0652 0.56523-0.56523 0.58697l-4.3915 0.15218q-0.45653-0.0435-0.45653-0.41305l0.41305-2.9566q-1 1.6957-2.1957 2.6088-1.174 0.91307-2.6523 0.91307-1.4783 0-2.5218-0.50001-1.0435-0.52176-1.7174-1.3479-0.6522-0.84786-1.0653-2.0218-0.7609-2.087-0.7609-5.6959 0-3.6306 0.47828-6.1524 0.50002-2.5218 0.8696-3.8262 0.36958-1.3261 0.9783-2.7175 0.63045-1.3914 1.4131-2.3262 1.7827-2.1305 4.5002-2.1305 2.0218 0 3.0871 0.9783 1.0653 0.95656 1.7827 2.8479l0.26087-2.9566q0.0435-0.47828 0.5435-0.52176l4.261-0.15218q0.56523 0.0435 0.56523 0.56524zm-13.261 15.761q0 5.1958 2.7827 5.1958 1.2174 0 1.9783-1.1087 0.76089-1.1305 1.3044-4.5002 0.56524-3.3697 0.56524-4.9132 0-1.5435-0.0217-1.9566t-0.087-1.087q-0.0652-0.69567-0.23914-1.1522-0.17392-0.47828-0.45654-0.95656-0.56524-0.93482-1.8262-0.93482-1.2609 0-2.0001 1.1305-0.73916 1.1087-1.1522 2.9784-0.84786 4.0001-0.84786 7.3046z" style="paint-order:markers stroke fill"/><path d="m-444.47-556.95q0.50002-4.7828 0.65219-4.935 0.15218-0.17392 0.45654-0.19566l4.1523-0.15218q0.58698 0.0435 0.58698 0.5435-0.41306 2.4131-0.69568 4.6306l5.0654-0.17392q0.52176 0.0217 0.52176 0.56524l-0.60872 3.4566q-0.087 0.52176-0.5435 0.5435l-4.9784 0.19566q-1.4783 13.305-1.4783 14.674 0 2.5436 2.174 2.5436 1.1087 0 2.1522-0.34784t1.3044-0.34784q0.45654 0 0.45654 0.56524l-0.45654 3.8045q-0.0435 0.3261-0.17391 0.47828-0.1087 0.15218-1.0653 0.36957-0.93482 0.2174-3.2175 0.2174-3.348 0-4.9567-1.5435-1.6088-1.5653-1.6088-4.6523t1.7174-15.696l-2.1305 0.087q-0.5435-0.0217-0.5435-0.5435l0.58698-3.5001q0.0652-0.50002 0.56523-0.52176z" style="paint-order:markers stroke fill"/><path d="m-412.45-556.47-2.8262 25.066q-0.0652 0.56523-0.56524 0.58697l-4.3915 0.15218q-0.45654-0.0435-0.45654-0.41305l0.41306-2.9566q-1 1.6957-2.1957 2.6088-1.174 0.91307-2.6523 0.91307-1.4783 0-2.5218-0.50001-1.0435-0.52176-1.7174-1.3479-0.6522-0.84786-1.0653-2.0218-0.76089-2.087-0.76089-5.6959 0-3.6306 0.47828-6.1524 0.50001-2.5218 0.86959-3.8262 0.36958-1.3261 0.9783-2.7175 0.63046-1.3914 1.4131-2.3262 1.7827-2.1305 4.5002-2.1305 2.0218 0 3.0871 0.9783 1.0652 0.95656 1.7827 2.8479l0.26088-2.9566q0.0435-0.47828 0.5435-0.52176l4.261-0.15218q0.56524 0.0435 0.56524 0.56524zm-13.261 15.761q0 5.1958 2.7827 5.1958 1.2174 0 1.9783-1.1087 0.7609-1.1305 1.3044-4.5002 0.56524-3.3697 0.56524-4.9132 0-1.5435-0.0217-1.9566t-0.087-1.087q-0.0652-0.69567-0.23914-1.1522-0.17392-0.47828-0.45653-0.95656-0.56524-0.93482-1.8262-0.93482-1.2609 0-2.0001 1.1305-0.73916 1.1087-1.1522 2.9784-0.84785 4.0001-0.84785 7.3046z" style="paint-order:markers stroke fill"/><path d="m-400.03-530.43q-0.5435 0-0.5435-0.52175l0.5435-4.5436q0.087-0.47828 0.56523-0.52176 3.3914-0.34783 4.4784-1.0652 1.087-0.73916 1.087-2.9132t-1.1087-5.6524q-1.1087-3.5001-1.4348-4.6523-1.0435-3.6958-1.0435-6.0437 0-2.3696 0.76089-4.0436 0.7609-1.674 2.174-2.674 2.7392-1.9131 7.3698-1.9131 0.58698 0 0.58698 0.5435l-0.58698 4.5002q-0.087 0.5435-0.5435 0.58698-4.2175 0.28262-4.2175 2.5001 0 2.0436 1.7827 8.0438 1.8044 5.9785 1.8044 8.5655 0 9.8047-11.674 9.8047z" style="paint-order:markers stroke fill"/><path d="m-368.49-556.56q0.47827 0.17392 0.47827 0.82612l-0.50001 3.9349q-0.0435 0.4348-0.60872 0.4348-0.5435 0-1.0435-0.2174-2.1088-0.93481-3.5001-0.93481-1.3914 0-2.2175 1.1522-0.82611 1.1522-1.3261 3.3045-0.93482 4.0219-0.93482 7.3481 0 5.348 2.761 5.348 2.0001 0 3.2392-0.50002 1.2392-0.52175 1.6088-0.52175 0.7609 0 0.7609 0.65219l-0.45654 3.8262q-0.0435 0.39132-0.17392 0.47828-0.1087 0.0652-0.30436 0.15218-2.6305 0.76089-4.9567 0.76089-2.3044 0-3.6523-0.58697-1.3261-0.58698-2.1088-1.5001-0.78263-0.93482-1.2609-2.2392-0.84786-2.2392-0.84786-5.5002 0-3.2827 0.41306-5.6959 0.4348-2.4349 0.89134-3.9567 0.47827-1.5218 1.2609-2.9132 0.78264-1.4131 1.8262-2.3262 2.2827-2.0001 6.0437-2.0001 2.5218 0 4.6089 0.67394z" style="paint-order:markers stroke fill"/><path d="m-358.94-559.41q-1.3479 0-2.1522-0.84786-0.80438-0.84785-0.80438-2.174 0-1.3479 1.0652-2.3914 1.087-1.0652 2.4349-1.0652 1.3479 0 2.174 0.84785 0.84785 0.84786 0.84785 2.1957 0 1.3261-1.1087 2.3914-1.1087 1.0435-2.4566 1.0435zm2.4131 2.9349-2.8262 25.066q-0.0435 0.30436-0.15218 0.4348-0.1087 0.13043-0.41306 0.15217l-4.3697 0.15218q-0.47828-0.0435-0.47828-0.41305l2.8697-25.284q0.087-0.47828 0.5435-0.52176l4.2393-0.15218q0.58698 0.0435 0.58698 0.56524z" style="paint-order:markers stroke fill"/><path d="m-351.44-534.82q-0.50002-1.3044-0.69568-2.5653-0.17392-1.2827-0.17392-3.5001t0.47828-5.4785q1.587-10.87 9.8699-10.87 3.1958 0 4.8915 2.1957 1.6957 2.1957 1.6957 5.6958 0 3.5001-0.4348 6.8046-0.0652 0.58698-0.67393 0.60872l-10.74 0.36957q-0.0217 0.3261-0.0217 0.8696 0 2.4566 0.84785 3.8914 0.8696 1.4348 2.6088 1.4348 1.7392 0 3.2175-0.50002 1.5001-0.52175 1.7609-0.52175 0.26088 0 0.45654 0.17391 0.19566 0.17392 0.19566 0.47828l-0.4348 3.8262q-0.0217 0.3261-0.13044 0.4348-0.087 0.087-0.36957 0.19566-2.6305 0.76089-5.0654 0.76089-2.4349 0-3.7827-0.58697-1.3479-0.58698-2.174-1.5001-0.80438-0.93482-1.3261-2.2175zm4.7393-12.196-0.19566 1.3914 5.6741-0.28262q0.36958-0.0217 0.47828-0.13044 0.3261-0.3261 0.3261-1.7827 0-1.4783-0.1087-2.0653-0.087-0.60872-0.3261-1.2392-0.50002-1.3914-1.7174-1.3914-1.1957 0-1.8914 0.41305-1.5435 0.95656-2.2392 5.0872z" style="paint-order:markers stroke fill"/><path d="m-322.94-556.47-0.23914 2.0001q3.1305-2.761 6.0002-2.761 3.6523 0 4.6089 4.0002 0.26088 1.087 0.26088 2.0653 0 0.95656-0.0652 1.5435l-2.087 18.218q-0.087 0.54349-0.54349 0.58697l-4.3915 0.15218q-0.47828-0.0435-0.47828-0.41305l1.9783-17.218q0.0652-0.56524 0.0652-1.0218 0-1.7827-0.84786-2.4131-0.82612-0.65219-2.1088-0.65219-1.2827 0-2.674 0.54349l-2.3262 20.436q-0.087 0.54349-0.5435 0.58697l-4.3915 0.15218q-0.47827-0.0435-0.47827-0.41305l2.8697-25.284q0.087-0.47828 0.54349-0.52176l4.261-0.15218q0.58698 0.0217 0.58698 0.56524z" style="paint-order:markers stroke fill"/><path d="m-292.4-556.56q0.47828 0.17392 0.47828 0.82612l-0.50002 3.9349q-0.0435 0.4348-0.60872 0.4348-0.5435 0-1.0435-0.2174-2.1088-0.93481-3.5001-0.93481-1.3914 0-2.2175 1.1522-0.82612 1.1522-1.3261 3.3045-0.93481 4.0219-0.93481 7.3481 0 5.348 2.761 5.348 2.0001 0 3.2392-0.50002 1.2392-0.52175 1.6088-0.52175 0.76089 0 0.76089 0.65219l-0.45653 3.8262q-0.0435 0.39132-0.17392 0.47828-0.1087 0.0652-0.30436 0.15218-2.6305 0.76089-4.9567 0.76089-2.3044 0-3.6523-0.58697-1.3261-0.58698-2.1088-1.5001-0.78264-0.93482-1.2609-2.2392-0.84785-2.2392-0.84785-5.5002 0-3.2827 0.41305-5.6959 0.4348-2.4349 0.89134-3.9567 0.47828-1.5218 1.2609-2.9132 0.78263-1.4131 1.8262-2.3262 2.2827-2.0001 6.0437-2.0001 2.5218 0 4.6089 0.67394z" style="paint-order:markers stroke fill"/><path d="m-287.27-534.82q-0.50002-1.3044-0.69568-2.5653-0.17392-1.2827-0.17392-3.5001t0.47828-5.4785q1.587-10.87 9.8699-10.87 3.1958 0 4.8915 2.1957 1.6957 2.1957 1.6957 5.6958 0 3.5001-0.4348 6.8046-0.0652 0.58698-0.67394 0.60872l-10.74 0.36957q-0.0217 0.3261-0.0217 0.8696 0 2.4566 0.84786 3.8914 0.86959 1.4348 2.6088 1.4348 1.7392 0 3.2175-0.50002 1.5-0.52175 1.7609-0.52175t0.45654 0.17391q0.19566 0.17392 0.19566 0.47828l-0.4348 3.8262q-0.0217 0.3261-0.13044 0.4348-0.087 0.087-0.36958 0.19566-2.6305 0.76089-5.0654 0.76089t-3.7828-0.58697q-1.3479-0.58698-2.174-1.5001-0.80438-0.93482-1.3261-2.2175zm4.7393-12.196-0.19566 1.3914 5.6741-0.28262q0.36958-0.0217 0.47828-0.13044 0.32609-0.3261 0.32609-1.7827 0-1.4783-0.10869-2.0653-0.087-0.60872-0.3261-1.2392-0.50002-1.3914-1.7175-1.3914-1.1957 0-1.8914 0.41305-1.5435 0.95656-2.2392 5.0872z" style="paint-order:markers stroke fill"/></g><circle cx="-443.92" cy="-581.69" r="5.2822" fill="#999" stroke-linecap="round" stroke-linejoin="round" stroke-width="2" style="paint-order:normal"/><circle cx="-443.92" cy="-509.03" r="5.2822" fill="#999" stroke-linecap="round" stroke-linejoin="round" stroke-width="2" style="paint-order:normal"/></g></g><g transform="matrix(.5826 0 0 .5826 -423.09 150.96)"><g><g><path d="m957.99-76.231a4.8383 4.8383 0 0 0-2.827 0.90003v4.84e-4a4.8383 4.8383 0 0 0-0.951 0.89597c-4.6608 5.7682-9.9603 11.705-13.723 18.769-13.286-3.5072-26.337-5.7937-40.353-6.9205-1.76-0.19874-3.5437-0.39486-5.3746-0.59002-19.649-2.0936-45.904-0.63898-71.178 4.5061-25.273 5.145-49.516 13.832-65.011 27.385-12.72 11.127-21.067 23.073-25.909 36.598-5.2543 13.359-7.3916 29.014-5.4806 49.279 0.0517 1.0885 0.10893 2.1885 0.175 3.3045 0.47686 8.0565 3.4209 16.499 8.3096 25.788-0.57934 0.16054-1.2329 0.43662-1.9485 0.81302-1.2304 0.28568-2.4632 0.56676-3.704 0.83452a4.8383 4.8383 0 0 0 0.18399 9.4941c3.9821 0.69912 8.1376 0.97859 12.409 0.932 0.72989 1.0325 1.4568 2.0575 2.212 3.147 5.8348 9.3251 12.033 17.745 16.965 24.074 4.9602 6.3654 8.9421 10.999 9.2526 11.388a4.8383 4.8383 0 0 0 8.3101-4.7c6.1672 5.3 12.739 10.255 19.524 14.795 9.6816 6.7335 19.716 12.479 29.618 17.199-3.8765 4.9075-7.9788 9.8292-11.761 13.258-3.6208 3.0105-7.1468 4.569-8.7091 4.6131-0.12021-0.0309-0.24685-0.0714-0.37598-0.13251-0.31407-0.24845-0.95182-0.95666-1.6545-2.05-0.91865-2.3989-2.5921-6.4358-5.376-9.9386l0.34099 0.48851c-0.96483-1.5796-2.0297-3.189-4.06-4.4676-1.8871-1.1884-4.9823-1.4511-7.2981-0.5-0.27074 0.0834-0.53622 0.14469-0.81098 0.26102-3.013 1.2751-5.146 3.8362-6.2451 6.4545-1.0706 2.5505-1.388 5.1997-1.404 7.8226-0.22232 4.5346 0.6793 9.2467 2.2975 13.773 0.52577 1.6614 1.0785 3.1376 1.648 4.3825 0.49129 1.0739 0.57956 1.8352 1.802 3.029 3.6257 6.2921 8.6207 11.782 15.461 13.49 4.4914 1.121 8.5685 0.43709 12.126-1.08-2.6945 8.4693-5.0516 17.439-6.4431 26.255-2.5734 16.303-2.1864 32.48 7.1861 43.385a4.8383 4.8383 0 0 0 4e-3 5e-3c0.0801 0.0929 0.1008 0.1152 0.06 0.068l-0.092-0.1095c2.3118 2.8404 5.1928 5.2995 8.5236 7.4031-0.0929 0.44553-0.20755 0.93021-0.37052 1.431-0.6981 2.1453-1.8018 4.9572-3.079 7.9771-2.5545 6.0397-5.7958 12.933-8.0781 18.045a4.8383 4.8383 0 0 0-0.41401 2.0365c-1.0311 2.7737-1.8245 5.3776-2.0655 7.9816-0.14564 1.5735-0.14282 3.2366 0.63653 5.074s2.758 3.6294 4.8015 4.1806l-0.9-0.34201c3.3614 1.6773 6.8132 0.67319 9.2321-0.62451 4.5402-2.024 7.707-5.8442 10.34-10.121a4.8383 4.8383 0 0 0 1.2305-1.3105c3.2159-5.0741 5.2344-11.162 6.9941-17.673 3e-3 -0.01 6e-3 -0.0185 8e-3 -0.028 1.0876-3.4777 1.9096-6.5956 2.4995-9.0121 10.93 2.0244 24.019 2.2591 39.149 0.56051 1.0123-0.11369 2.5053-0.61256 3.569-1.8205 1.0638-1.208 1.3419-2.6806 1.348-3.6016 0-3e-3 -5.1e-4 -4e-3 -5.1e-4 -7e-3l2.267-0.42501c1.5243-0.23041 3.5606-0.57929 5.3256-0.87151 0.20792 0.40573 0.47271 0.81023 0.80151 1.212a4.8383 4.8383 0 0 0 5.1186 2.4715c0.14646-0.0265 0.2691-0.0495 0.401-0.074 0.11971-5e-3 0.21233 0.01 0.337-2e-3 0.28474-0.0272 0.59377-0.075 0.88351-0.10649-0.48749 2.5672-1.0646 4.9734-1.709 7.3171-1.6538 5.0285-3.7043 10.627-4.8806 15.917-0.59361 2.6695-0.98534 5.2672-0.85551 7.8781 0.12251 2.4635 0.78125 5.1326 2.6125 7.3061 1.1942 1.5866 3.2778 2.9769 5.5661 3.3045 3.011 0.58173 5.902-0.60401 7.9416-2.1565 2.1326-1.6234 3.8234-3.7182 5.4411-6.1296 1.1358-1.6291 2.0249-3.1697 2.658-4.4176l-0.0745 0.14101c0.25026-0.45545 0.49596-0.92287 0.74101-1.3915a4.8383 4.8383 0 0 0 0.1005-0.1695 4.8383 4.8383 0 0 0 0.057-0.10201 4.8383 4.8383 0 0 0 0.089-0.1605c0.0432-0.0871 0.0522-0.10676 0.028-0.058l-6e-3 4e-3a4.8383 4.8383 0 0 0 4e-3 -8e-3l2e-3 4e-3c0.023-0.0464 0.0437-0.0904 0.0665-0.13649 0.12305-0.2494 0.2436-0.49624 0.36051-0.73751 3.3655-6.7267 6.2824-14.598 8.3861-21.318 1.0519-3.3603 1.8953-6.422 2.479-8.9416 0.23594-1.0185 0.41887-1.8114 0.58101-2.6145 5.0761-1.4052 10.049-2.8434 14.449-4.148l0.0265-8e-3c3.5473-1.0228 5.6891-1.6885 5.6891-1.6885a4.8383 4.8383 0 0 0 3.1715-6.0871c-5.2626-16.528-8.7366-34.283-10.784-46.568 0.1591 0.0808 0.30145 0.16894 0.47051 0.24499 0.92543 0.48423 1.9846 0.91542 3.337 1.029 1.4483 0.12165 3.2686-0.27692 4.64-1.262 4.5024-3.2341 5.3162-8.8877 4.6941-13.709-0.61822-4.7914-2.4448-9.679-4.5656-14.337-0.86846-2.7222-2.9088-6.9231-8.9491-16.238-0.59149-0.92509-0.70827-1.089-1.005-1.535-3e-3 -0.0214-4e-3 -0.0462-6e-3 -0.0675l6e-3 0.0665c-9.6e-4 -2e-3 -3e-3 -4e-3 -4e-3 -5e-3 -0.28397-4.7988-2.374-9.1934-4.7035-13.272-1.528-2.8134-3.3724-5.6405-5.3186-8.4736 19.092-9.1785 38.456-22.204 54.709-38.419 0.0294-0.0292 0.0541-0.0539 0.037-0.0371a4.8383 4.8383 0 0 0 0.0205-0.0205c0.25772-0.25734 0.52201-0.52102 0.79052-0.79251l0.0125-0.013c2.6432-2.6475 5.1776-5.3712 7.5701-8.1731 3.056-3.5281 5.933-7.1968 8.6456-10.972l3.206 9.7641a4.8383 4.8383 0 0 0 9.3456-0.612 4.8383 4.8383 0 0 0 0.098-0.532l2.178-17.268c0.2487-0.89112 0.5268-1.795 0.8745-2.74a4.8383 4.8383 0 0 0 0.215-0.8085c1.2683-2.4954 1.9311-5.3653 1.9311-8.4311 0-1.8597-0.2492-3.6499-0.7185-5.3261l0.089 0.36952c-0.302-1.5337-0.3048-3.1241-0.093-4.8945 1.3663-3.8082 3.5101-10.404 5.1541-18.527 3.3768-12.224 5.3507-28.801-3.8416-51.777-9.2727-23.175-28.888-37.803-53.804-47.396l-0.0215-0.0097c-5.0014-2.0358-10.204-3.8192-15.739-5.4756 0.8398-3.0458 2.0051-6.2327 3.2385-9.5681 1.2622-2.613 2.6678-5.3382 3.9895-8.1986a4.8383 4.8383 0 0 0-4.377-6.8661zm-79.193 21.841c5.3511 0.0687 10.377 0.34832 14.94 0.83453 1.8293 0.19496 3.6118 0.3908 5.3706 0.58954a4.8383 4.8383 0 0 0 0.1575 0.01548c14.62 1.1692 28.009 3.6082 41.946 7.4901a4.8383 4.8383 0 0 0 0.0125 0l0.59301 0.16352a4.8383 4.8383 0 0 0 3.502-0.37048 4.8383 4.8383 0 0 0 2.8415 2.1085h-0.025c6.9683 1.9408 13.216 4.0033 19.115 6.4055a4.8383 4.8383 0 0 0 0.089 0.03483c23.506 9.0345 40.31 21.824 48.38 41.994 8.4978 21.24 6.5616 34.635 3.4521 45.797a4.8383 4.8383 0 0 0-0.083 0.34407c-1.5987 7.9443-3.7807 14.521-5.0125 17.898a4.8383 4.8383 0 0 0-0.2485 1.004c-0.3709 2.7214-0.4046 5.5533 0.162 8.4306a4.8383 4.8383 0 0 0 0.088 0.37c0.2244 0.80142 0.36 1.727 0.36 2.717 0 2.0978-0.6595 3.8988-1.3265 4.8281a4.8383 4.8383 0 0 0-0.466 0.80551c-0.056-0.06163-0.1054-0.11044-0.1845-0.21551a4.8383 4.8383 0 0 0-8.0191 0.4305c-0.1148 0.19236-0.2508 0.41334-0.4035 0.6655a4.8383 4.8383 0 0 0-0.123 0.22851 4.8383 4.8383 0 0 0-0.153 0.242v-0.02254c-0.03 0.04983-0.044 0.07257-0.042 0.06802a4.8383 4.8383 0 0 0-0.037 0.06744 4.8383 4.8383 0 0 0-0.045 0.06705c-3.8846 6.3268-8.3814 12.378-13.346 18.109a4.8383 4.8383 0 0 0-0.023 0.027c-2.2192 2.5999-4.5915 5.151-7.0851 7.6481a4.8383 4.8383 0 0 0-0.0175 0.0175c-0.24688 0.24975-0.50187 0.50422-0.76351 0.7655-0.0244 0.0243-0.0548 0.0552-0.044 0.0445a4.8383 4.8383 0 0 0-0.0105 0.01c-16.825 16.787-37.469 30.197-57.226 38.963h0.7215a4.8383 4.8383 0 0 0-1.2835 0.26849 4.8383 4.8383 0 0 0-2.689 4.9521l-0.5085-0.32851 0.09-1.001 0.0995-0.51001a4.8383 4.8383 0 0 0 3.3575 6.1251c2.4686 3.4621 4.7223 6.831 6.4011 9.9271a4.8383 4.8383 0 0 0 0.0535 0.096c2.0273 3.5438 3.411 7.2772 3.4935 9.2461a4.8383 4.8383 0 0 0 0.031 0.38049c0.0371 0.30551 0.063 0.58059 0.0765 0.819a4.8383 4.8383 0 0 0 0.82901 2.4465s0.61503 0.90458 1.5745 2.4065a4.8383 4.8383 0 0 0 0.018 0.0275c6.2241 9.5983 7.8078 13.631 7.9716 14.21a4.8383 4.8383 0 0 0 0.25451 0.693c1.9177 4.2024 3.4073 8.5212 3.8105 11.647 0.19066 1.4778 0.17517 2.4539 0.0459 3.152-0.16801-0.15532-0.32834-0.28238-0.489-0.466a4.8383 4.8383 0 0 0-0.2095-0.2245c-1.0201-1.0263-2.1301-2.3599-3.0795-3.605a4.8383 4.8383 0 0 0-0.28101-0.33601c-0.78594-0.85712-1.7247-2.0203-2.4345-3.2365a4.8383 4.8383 0 0 0-8.9836 2.9985s3.4948 30.21 12.011 58.962c-0.49323 0.14427-0.33224 0.10357-0.90801 0.26951a4.8383 4.8383 0 0 0-0.0355 0.0105c-5.308 1.574-11.352 3.342-17.428 4.9796a4.8383 4.8383 0 0 0-3.4475 3.5525c-0.0233 0.0982-0.0546 0.22477-0.09 0.37351a4.8383 4.8383 0 0 0-0.12101 1.441c-0.047-0.70036-0.14612 1.3241-0.6545 3.5185-0.50883 2.1964-1.2963 5.0701-2.287 8.2351-1.9815 6.3299-4.7979 13.869-7.8051 19.88a4.8383 4.8383 0 0 0-0.0275 0.0565c-0.10001 0.20659-0.19781 0.40567-0.29599 0.60551a4.8383 4.8383 0 0 0-0.13001 0.23c-0.2717 0.52598-0.54417 1.0379-0.81651 1.5335a4.8383 4.8383 0 0 0-0.074 0.1405c-0.42673 0.84111-1.1298 2.0652-1.977 3.2785a4.8383 4.8383 0 0 0-0.0545 0.08c-1.2757 1.9071-2.5285 3.2811-3.2995 3.868-0.22674 0.1726-0.22823 0.17031-0.3055 0.223-0.0675-0.10803-0.23956-0.43432-0.29051-1.459-0.0609-1.2242 0.15155-3.114 0.63701-5.2971 0.9709-4.3661 2.9474-9.8733 4.678-15.148a4.8383 4.8383 0 0 0 0.0671-0.223c1.1754-4.2658 2.2501-8.9404 2.876-14.464a4.8383 4.8383 0 0 0-0.028-1.299c-0.0585-0.37123-0.13601-0.74976-0.23951-1.1365a4.8383 4.8383 0 0 0-5.5221-3.512c-1.3871 0.24712-2.6894 0.44504-3.938 0.61451-0.0858-0.24287-0.17279-0.48754-0.2505-0.71302a4.8383 4.8383 0 0 0-5.3846-3.1935c-4.1051 0.69763-6.8699 1.1599-9.5476 1.5635a4.8383 4.8383 0 0 0-0.17049 0.0285l-5.0105 0.93951a4.8383 4.8383 0 0 0-1.8655 0.029c-0.0802 0.0172-0.18266 0.0627-0.26702 0.0845a4.8383 4.8383 0 0 0-0.76752 0.24401c-0.0153 7e-3 -0.0265 7e-3 -0.042 0.013a4.8383 4.8383 0 0 0-0.0605 0.0295 4.8383 4.8383 0 0 0-0.13199 0.0555c-0.0178 9e-3 -0.0338 0.0257-0.0515 0.0345a4.8383 4.8383 0 0 0-1.763 1.4955c-0.58861 0.72979-1.0348 1.5576-1.1865 2.2715-0.0803 0.37811-0.11509 0.70879-0.1295 1.015-14.414 1.237-26.454 0.4943-35.716-1.8055a4.8383 4.8383 0 0 0-0.0365-9e-3c-0.0752-0.018-0.167-0.0407-0.276-0.0675a4.8383 4.8383 0 0 0-5.8596 3.583c-0.0116 0.0488-0.0197 0.0837-0.025 0.106a4.8383 4.8383 0 0 0-0.114 1.4855c-0.30494 1.4648-1.212 5.6737-3.078 11.608a4.8383 4.8383 0 0 0-0.0555 0.1895c-1.5215 5.6332-3.2576 10.499-5.2925 14.054a4.8383 4.8383 0 0 0-1.1475 1.331c-2.2156 3.8208-4.7311 6.4222-6.5851 7.3396 0.32955-1.4434 0.86562-3.2866 1.7545-5.5466a4.8383 4.8383 0 0 0 0.32451-1.5155c2.1698-4.8043 4.999-10.879 7.4141-16.589 1.3341-3.1541 2.5179-6.1395 3.368-8.7521 0.85018-2.6126 1.7258-4.3375 1.1745-7.5596a4.8383 4.8383 0 0 0-0.36401-1.1855c-0.16545-0.36404-0.38495-0.76742-0.69351-1.1855a4.8383 4.8383 0 0 0-1.62-1.398c-3.5896-1.9102-6.3404-4.1421-8.3466-6.6071a4.8383 4.8383 0 0 0-0.092-0.11001c-0.0706-0.0818-0.0766-0.0878-0.0461-0.0519l-3e-3 -4e-3c7.7e-4 9e-4 -2e-3 -2e-3 -9.7e-4 -9.7e-4 -6.1947-7.2128-7.3426-20.49-4.963-35.564 2.38-15.078 7.9862-31.489 13.101-44.203a4.8383 4.8383 0 0 0-8.8086-3.982c0.22149-0.43961 0.0147-0.0286-5e-3 8e-3 -0.0192 0.0367-0.0489 0.0923-0.0855 0.161a4.8383 4.8383 0 0 0-0.0205 0.039c-1.2719 2.4343-2.8227 4.6034-4.513 6.3836a4.8383 4.8383 0 0 0-0.078 0.084c-3.4236 3.781-7.5438 6.672-12.488 5.4381-2.8258-0.70529-6.9097-4.362-9.7591-9.4971a4.8383 4.8383 0 0 0-1.2135-1.435c1.4852 1.1844 0.52609 0.56367 0.16551-0.2245-0.36058-0.78815-0.82586-1.9976-1.2645-3.399a4.8383 4.8383 0 0 0-0.063-0.18698c-1.2781-3.5664-1.8982-7.2232-1.754-10.092a4.8383 4.8383 0 0 0 7e-3 -0.24299c-8e-5 -1.8454 0.28234-3.3952 0.65648-4.2866 0.27418-0.65312 0.49686-0.89703 0.77651-1.0805 0.15212 0.19815 0.28204 0.34128 0.45902 0.63102a4.8383 4.8383 0 0 0 0.34099 0.48799c1.6505 2.0766 3.4281 6.0593 4.123 7.9051a4.8383 4.8383 0 0 0 0.39801 0.81553c1.1899 1.9495 2.5844 3.9277 4.866 5.4356a4.8383 4.8383 0 0 0 0.29 0.17751c1.2867 0.72603 2.6977 1.2103 4.12 1.4215a4.8383 4.8383 0 0 0 0.455 0.0455c6.1335 0.3242 11.144-3.1181 15.716-6.9426a4.8383 4.8383 0 0 0 0.13799-0.11999c5.6491-5.0999 10.944-11.902 15.563-17.866a4.8383 4.8383 0 0 0-0.33452-8.7091c-0.0392-0.017-0.0753-0.0327-0.10949-0.0475a4.8383 4.8383 0 0 0-0.01-4e-3 4.8383 4.8383 0 0 0-2e-3 -9.7e-4c-11.171-4.8654-22.79-11.324-33.887-19.045a4.8383 4.8383 0 0 0-0.0735-0.0505c-16.547-11.071-31.71-24.622-41.761-39.275a4.8383 4.8383 0 0 0-0.087-0.11399 4.8383 4.8383 0 0 0-0.13548-0.21151c-1.7446-2.5654-3.333-5.1625-4.7486-7.7841a4.8383 4.8383 0 0 0-0.14148-0.24399c-0.0924-0.14961-0.20289-0.33516-0.33701-0.55502a4.8383 4.8383 0 0 0-5.5601-2.102c0.0645-0.02003 4e-3 -0.0029-0.14349 0.04296a4.8383 4.8383 0 0 0-2.4705 1.7825c-0.44829-0.51204-0.84809-0.79694-1.2375-1.037a4.8383 4.8383 0 0 0-0.64852-2.727c-6.2881-10.769-9.5686-19.657-9.9971-26.897-0.0638-1.0779-0.1196-2.1449-0.16998-3.2075a4.8383 4.8383 0 0 0-0.0166-0.23154c-1.8437-19.287 0.17647-33.221 4.8611-45.098a4.8383 4.8383 0 0 0 0.056-0.14901c4.2694-11.963 11.438-22.356 23.195-32.641 13.194-11.542 36.246-20.235 60.571-25.187 18.244-3.714 37.23-5.4068 53.283-5.2006zm-138.59 137.01c0.0436 0.03706 0.037 0.09473-0.0225 0.114-0.0737 0.0238-0.37227 0.08718-0.5185 0.12498 0.27077-0.22175 0.47708-0.29333 0.541-0.23898zm268.19 3.353 1.031 0.0019 0.1795 0.435a4.8383 4.8383 0 0 0-1.253-0.28949zm-265.23 9.7846c-0.0213 0.0357-0.0786 0.04538-0.19052 0.0019 0.0637-9.67e-4 0.12682-3.58e-4 0.19052-0.0019zm266.34 15.788a4.8383 4.8383 0 0 0 0.06 0.1615v5e-4c1e-4 1.4e-4 -0.056-0.162-0.056-0.162zm-169.23 51.223c-0.0924 0.13511-0.0161 0.0226-0.017 0.024-4.5e-4 6.7e-4 -7.9e-4 2e-3 -0.0145 0.021-7e-3 0.01-0.0153 0.0213-0.0425 0.058-4e-3 6e-3 -0.0159 0.0206-0.021 0.0275a4.8383 4.8383 0 0 0 0.095-0.13049zm-15.928 41.049-0.078 0.084c0.0132-0.0138 0.0249-0.0296 0.038-0.0435 0.0122-0.0135 0.0278-0.027 0.04-0.0405zm92.497 119.17a4.8383 4.8383 0 0 0 0.0815 5.1e-4l-7e-3 4e-3c0.21109 9e-3 0.18873 0.0117-0.075-5e-3z" color="#000000" color-rendering="auto" dominant-baseline="auto" fill="#fff" image-rendering="auto" shape-rendering="auto" solid-color="#000000" style="font-feature-settings:normal;font-variant-alternates:normal;font-variant-caps:normal;font-variant-ligatures:normal;font-variant-numeric:normal;font-variant-position:normal;isolation:auto;mix-blend-mode:normal;paint-order:normal;shape-padding:0;text-decoration-color:#000000;text-decoration-line:none;text-decoration-style:solid;text-indent:0;text-orientation:mixed;text-transform:none;white-space:normal"/><path d="m943.66 219.18c0.0329 0.15539 5.1623 8.3757 8.7623 3.5714 4.8098-6.4185-2.1846-19.886-2.2636-19.856z" fill="#ffdab9" style="paint-order:normal"/><path d="m791.1 195.58c-1.1652 2.151-10.671-23.597-0.4267-27.933 6.2119-2.629 11.48 13.231 11.462 13.228z" fill="#ffdab9" style="paint-order:normal"/><path d="m817.15 317.85 12.942 2.5634c0.0958 0.71541-8.5915 12.431-13.776 9.6692-4.1524-2.2118 0.83105-12.233 0.83376-12.233z" fill="#cd853f" style="paint-order:normal"/><path d="m828.76 285.23c1.7766 2.6904-7.4356 21.675-12.162 32.262 5.0889 1.2024 6.4561 5.2198 14.357 2.3125 4.7034-7.421 7.0932-18.813 9.8784-30.55z" fill="#add8e6"/><path d="m909.62 285.97c-1.1259 12.688-4.7049 20.469-7.1345 30.55 1.905 5.1797 8.9863 2.3278 14.614 1.6908 6.0791-12.243 9.2397-24.631 11.911-35.899z" fill="#add8e6"/><path d="m802.13 180.88-11.036 14.704c9.5882 19.663 27.252 12.586 35.102-2.7653-9.5932 27.533-19.941 55.24-10.976 78.515 6.4389 16.114 30.33 24.329 67.93 20.107 2.0972-0.23552-1.987-4.6021 0.2359-4.8888 6.1821-0.7972 9.1819-1.2912 16.703-2.5701 0 0-0.64556 4.6152 2.3058 4.3328 13.514-1.2926 36.012-8.1845 49.661-12.225-9.3678-29.421-13.254-62.773-13.254-62.773 1.9952 3.4188 4.8614 5.8671 4.8614 5.8671l6.4993-16.219s0.8801-2.1201-10.363-19.074c-0.41054-7.2722-5.6866-15.896-12.257-24.879l-91.649 1.0281c-10.599 13.671-24.906 32.394-33.763 20.839z" fill="#fff"/><path d="m1023.3 24.52c10.908 84.433-94.698 147.23-145.45 146.16-50.063-1.0501-152.77-67.495-138-142.17 48.791-114.53 281.57-64.552 283.44-3.9921z" fill="#ffdab9"/><path d="m818.15 64.398c-7.135 4.8277-14.474 9.1214-21.82 12.821-5.8e-4 0.0097-9.7e-4 0.01548 0 0.01742-0.0232 0.3341-0.0397 0.66617-0.0494 0.99186-0.0106 0.25882-0.0155 0.52046-0.0203 0.78441 0 0.26376 0 0.52984-5.8e-4 0.79805v4.84e-4c0 0.26811 0.0107 0.53806 0.0203 0.80966 0.0203 0.54377 0.0542 1.0936 0.10189 1.6476 0.0252 0.27692 0.0513 0.55442 0.0832 0.83269v5.81e-4c0.0319 0.27798 0.0658 0.55693 0.10498 0.83588 0.1165 0.83743 0.26773 1.6766 0.45524 2.5081 0.0629 0.27731 0.12869 0.55297 0.19942 0.82795 0.0155 0.05902 0.0329 0.11804 0.0484 0.17697 0.20193 0.76438 0.43443 1.5194 0.70352 2.256 0.28988 0.7936 0.61992 1.5664 0.99233 2.3092 1e-4 1.93e-4 -9e-5 2.9e-4 0 5.8e-4 0.12414 0.2478 0.25293 0.49143 0.38645 0.73187 1e-4 9.6e-5 -1e-4 2.9e-4 0 5.8e-4 0.26734 0.48088 0.55442 0.94754 0.86104 1.3961 0.30672 0.44856 0.63328 0.87942 0.98083 1.29 0.17377 0.20561 0.35287 0.40551 0.53709 0.60009 0.18404 0.19458 0.37329 0.38364 0.56806 0.56709 1e-4 9.7e-5 5.8e-4 -9.6e-5 5.8e-4 0 0.68195 0.6416 1.4295 1.2119 2.2472 1.6954 1e-4 9.7e-5 3e-4 -9.6e-5 4.9e-4 0 0.11678 0.0687 0.23483 0.13672 0.35442 0.20193 1.9e-4 9.7e-5 2.9e-4 0 5.8e-4 0 0.23909 0.13111 0.48417 0.25447 0.73506 0.37058 1e-4 9.7e-5 2e-4 -9.7e-5 4.9e-4 0 0.12549 0.05805 0.25195 0.11446 0.38015 0.16845 1e-4 9.7e-5 2.9e-4 0 4.9e-4 0 0.38519 0.16255 0.78363 0.30807 1.1956 0.43424 1e-4 9.7e-5 2e-4 0 4.9e-4 0 0.27459 0.08418 0.55499 0.16004 0.84169 0.22728 9e-5 9.7e-5 1.9e-4 0 4.8e-4 0 0.13623 0.01258 0.2716 0.02322 0.40589 0.03096 0.13459 0.0097 0.26792 0.01258 0.40058 0.01548 0.26008 0 0.51678 8.71e-4 0.76922-0.01258 0.13313-0.0097 0.2654-0.01548 0.39641-0.03096 0.35916-0.03483 0.71-0.08708 1.0532-0.15713 0.0474-0.01258 0.0938-0.02032 0.14136-0.03096 0.17997-0.03967 0.35742-0.08418 0.53284-0.13314 0.19052-0.05322 0.37822-0.11234 0.56342-0.17687 0.0735-0.02709 0.14716-0.05031 0.21993-0.07741 1.9e-4 -9.7e-5 2.9e-4 -5.81e-4 4.8e-4 -5.81e-4 0.22506-0.08418 0.44644-0.1761 0.66365-0.27605 2e-4 -1.93e-4 2.9e-4 -5.8e-4 5.9e-4 -5.8e-4 0.10798-0.04935 0.21218-0.10653 0.31813-0.15975 0.23377-0.11746 0.46298-0.24373 0.68736-0.37861 0.0832-0.05031 0.16942-0.09579 0.25138-0.14872 1.9e-4 -1.94e-4 1.9e-4 -2.9e-4 4.8e-4 -5.81e-4 0.80666-0.51465 1.5498-1.1381 2.2309-1.8445 0.17029-0.17658 0.33681-0.35829 0.49936-0.54503 0.16255-0.18664 0.32094-0.37822 0.47566-0.57386 0.30933-0.39158 0.60289-0.80066 0.88106-1.2244 0.27808-0.4236 0.54049-0.86172 0.78751-1.3111 0.24702-0.44944 0.47866-0.9101 0.69462-1.3788 0.10807-0.23425 0.21228-0.47034 0.31243-0.70826 0.10033-0.23802 0.19632-0.4773 0.28872-0.71823 0.0919-0.24063 0.18151-0.48233 0.26618-0.7251 0.67826-1.942 1.1095-3.9363 1.2964-5.7786 0.0387-0.34716 0.0706-0.69984 0.0994-1.0547 0.01-0.09385 0.0155-0.18742 0.0203-0.28156 0.0232-0.30101 0.0397-0.60473 0.0532-0.91039 0-0.06096 0.01-0.12269 0.0106-0.18432 0.0155-0.35945 0.0232-0.72152 0.0271-1.0858 7.7e-4 -0.08998 2.9e-4 -0.18123 4.8e-4 -0.27189 5.8e-4 -0.29492 0-0.59128-0.0106-0.88842 0-0.09095 0-0.18248-0.01-0.27421-0.0126-0.379-0.029-0.75857-0.0532-1.1393 0-0.01742 0-0.04161-0.01-0.06289-0.0252-0.37019-0.0561-0.74087-0.0939-1.1115-0.01-0.06096-0.0126-0.12133-0.0184-0.18248-0.0832-0.78422-0.19458-1.5673-0.337-2.3438-0.0184-0.09482-0.0348-0.19042-0.0532-0.28572-0.0561-0.29104-0.11727-0.58132-0.18287-0.86994-0.0126-0.05322-0.0232-0.10624-0.0348-0.15974-4.9e-4 0-9.7e-4 -0.0097 0-0.0097-0.0368-0.15597-0.0755-0.31107-0.11437-0.46627-0.0203-0.08031-0.0406-0.161-0.061-0.24112-0.0416-0.15975-0.0842-0.31872-0.12907-0.4773-0.0184-0.06483-0.0377-0.12975-0.0571-0.19477-0.0832-0.28688-0.17155-0.57183-0.26463-0.85427-0.0251-0.07547-0.0493-0.15133-0.0745-0.22631-0.0513-0.15084-0.10469-0.30111-0.15917-0.4505-0.03-0.08321-0.0619-0.16594-0.0929-0.24886-0.12569-0.33372-0.25738-0.66414-0.39806-0.98915-0.0658-0.15307-0.13565-0.30411-0.20532-0.45524-0.029-0.06289-0.0581-0.1252-0.0871-0.18732-0.0735-0.15472-0.14717-0.30875-0.22419-0.46105 0 0 0-0.0097-0.01-0.01258-0.0106-0.02322-0.0232-0.04354-0.0348-0.0658-0.15007-0.29375-0.30788-0.58219-0.47208-0.86636-0.0368-0.06289-0.0726-0.12588-0.10934-0.18868-0.0793-0.1341-0.16119-0.26724-0.24421-0.39902-0.0445-0.06967-0.089-0.13894-0.13391-0.20754-0.17068-0.2627-0.34755-0.52036-0.53188-0.77231-0.0203-0.03096-0.0416-0.05902-0.0629-0.08805z" fill="#32cd32" style="paint-order:normal"/><path d="m824.71 99.98a60.636 40.935 0 0 0-0.13004 1.7494 60.636 40.935 0 0 0 60.636 40.935 60.636 40.935 0 0 0 60.636-40.935 60.636 40.935 0 0 0-0.0919-1.7494z" fill="#500" style="paint-order:normal"/><path d="m826.55 112.29 117.41 0.17484c1.5528-4.1605 1.1869-8.3212 1.7044-12.482h-121.22c0.34997 4.2034 0.22709 8.5419 2.1116 12.307z" fill="#fffafa" style="paint-order:normal"/><path d="m885.22 128.33a47.691 32.196 0 0 0-31.758 8.2293 60.636 40.935 0 0 0 31.758 6.1004 60.636 40.935 0 0 0 31.743-6.1174 47.691 32.196 0 0 0-31.743-8.2123z" fill="#f08080" style="paint-order:normal"/><ellipse cx="1012.7" cy="81.298" rx="6.4941" ry="9.8958" fill="#ffdab9" style="paint-order:normal"/><path d="m1010.6 83.397c-1.7187-0.44866-2.1239-1.6591-1.6752-3.3777 0.4486-1.7186 2.2055-2.7482 3.9241-2.2995" fill="#ffdab9" style="paint-order:normal"/><path d="m902.84 316.68 2.3443 2.021 7.4241-0.14696 4.2773-0.47245c0.50594 0.0345-5.7386 12.538-11.612 11.902-5.7367-0.6214-3.8987-12.937-2.434-13.304z" fill="#cd853f" style="paint-order:normal"/><path d="m955.57-67.691c-3.9407 5.5033-10.074 10.815-12.148 17.822l-0.91358-0.25118c-25.06-6.9796-48.641-9.4388-79.882-8.157-42.972 1.7631-92.089 15.483-112.84 43.307-13.626 18.27-21.127 37.656-17.599 71.046-0.18664 6.5475 4.8223 19.365 10.636 30.187 0.87401 1.6272-7.9221 1.6672-7.9446 3.51-0.01 0.82505 9.644 0.32578 10.683 1.7772 8.3259 11.629 18.506 27.88 23.958 32.348 1.3996 1.147-6.907-14.149-11.26-23.108-2.5228-5.1923-5.0473-9.4111-5.448-9.9663 5.5787-1.7312 33.524-9.7853 33.524-9.7853 9.9595-3.2161 32.111-17.743 32.111-17.743 14.765-0.47227 21.122-0.60057 40.692-12.708 7.1254-4.4085 12.879-7.1216 17.979-10.605 24.259-16.567 33.131-24.913 49.487-28.805 10.858-2.27 31.695-2.288 33.539 1.0322 7.1091 14.541 36.548 44.66 43.828 55.943 5.2411 8.1227 9.0412-1.5273 13.624 5.0969 0 0 11.751-28.096 7.3321-52.503-2.3882-13.192-10.247-33.801-24.959-44.733-16.555-12.3-31.02-18.796-50.535-24.231h-0.0106c1.0361-6.5786 3.9674-12.991 6.1477-19.47zm52.113 158.03c0.1442 0.19206 6.4306 19.743 6.4306 19.743l2.4022-19.043c-2.7778 0.46888-5.7511 0.11292-8.8328-0.70004z" fill="#ff4500" style="paint-order:normal"/></g><path d="m854.25 167.19 4.2463 5.7787 7.5264 4.9606 1.9882 6.6239 3.3146 23.14 3.421 12.487 6.0541 32.843 2.4988 33.869 16.421-3.079c-6.3365-19.28-9.1137-38.683-9.7502-58.159l5.1316-32.501 2.0527-13.342 11.933-11.478 3.1201-3.9171-18.816 4.6185-15.737 1.8815-19.843-4.2764z" fill="#b1cdf1"/></g><g fill="none" stroke="#8b4513" stroke-linecap="round"><path d="m837.15 159.9-0.0174 1.7408c2.4964 7.6969 3.535 16.227 8.9507 22.256 3.5421 0.22457 6.8779-0.24548 10.16-1.9352 9.9307 15.056 12.955 27.702 19.211 41.533-2.7696-14.36-7.2192-29.041-8.3249-42.985-1.9064-3.0494-3.9178-6.0688-8.9507-8.2249l-6.6403-6.7322" stroke-width="1.8264"/><path d="m875.35 223.09c5.5153 22.925 5.4833 45.156 8.2249 67.735" stroke-width="1.8264"/><path d="m925.24 159.76s-2.9159 18.272-8.1236 24.481c-3.5324 0.34474-6.8823-0.0126-10.22-1.589-9.4136 15.385-11.781 27.349-17.563 41.385 2.2802-14.446 6.0022-28.492 6.6336-42.466 1.8017-3.1124 3.7094-6.1984 8.666-8.5243l6.6648-8.3914" stroke-linejoin="round" stroke-width="1.8268"/><g stroke-width="1.8264"><path d="m889.33 224.08c2.1616 22.382 3.6024 42.576 11.928 64.342"/><path d="m883.13 286.21 15.309-2.5658"/><path d="m836.44 169.99s-41.242 80.013-17.562 107.57c12.869 14.973 37.813 16.398 64.677 13.298m17.702-2.4053c26.759-4.8402 50.797-12.356 50.797-12.356s-19.296-59.106-12.527-91.083c1.976-9.3349-13.206-26.61-13.206-26.61"/><path d="m828.76 285.43c4.0438 5.4495-22.442 43.96-11.708 44.802 15.744 1.2351 23.804-40.151 23.804-40.151"/><path d="m836.36 159.93s-17.138 25.1-28.817 24.475c-7.8367-0.41953-9.7263-20.854-16.464-16.83-11.955 7.1401-1.071 36.508 12.439 39.88 13.638 3.4039 22.684-14.635 22.684-14.635"/><path d="m939.8 183.89s22.376 32.583 11.708 40.245c-3.9285 2.8218-12.622-10.976-12.622-10.976"/><path d="m902.24 316.68c3.0996 5.248 10.385 1.2064 14.906 1.4776"/><path d="m817.15 317.85c5.1515 2.5064 6.304 3.9348 12.942 2.5634" style="paint-order:normal"/></g></g><path d="m791.1 195.58 11.036-14.704" fill="#b22222" stroke="#8b4513" stroke-linecap="round" stroke-width="1.8264" style="paint-order:normal"/><g fill="none" stroke="#8b4513" stroke-linecap="round"><g><g stroke-width="1.8264"><path d="m950.16 202.9-6.4987 16.284" style="paint-order:normal"/><path d="m824.71 99.98a60.636 40.935 0 0 0-0.13004 1.7494 60.636 40.935 0 0 0 60.636 40.935 60.636 40.935 0 0 0 60.636-40.935 60.636 40.935 0 0 0-0.0919-1.7494z" style="paint-order:normal"/><path d="m826.91 112.75h116.65" style="paint-order:normal"/><path d="m839.28 99.98v12.42" style="paint-order:normal"/><path d="m858 99.98v12.42" style="paint-order:normal"/><path d="m875.49 99.98v12.42" style="paint-order:normal"/><path d="m894.03 99.98v12.42" style="paint-order:normal"/><path d="m911.18 99.98v12.42" style="paint-order:normal"/><path d="m927.8 99.98v12.42" style="paint-order:normal"/><path d="m1008 75.129s0.3242-4.1875 4.2337-4.1875 7.0787 4.6992 7.0787 10.496c0 5.7968-3.1692 10.496-7.0787 10.496s-5.7181-6.5378-5.7181-6.5378" style="paint-order:normal"/></g><path d="m753.06 90.932c24.127 45.293 95.035 80.064 126.72 80.064 32.069 0 103.74-34.564 127.58-80.748" stroke-width="1.8263"/><g stroke-width="1.8264"><path d="m796.33 77.219c-0.0232 0.34097-0.0397 0.67952-0.0503 1.012-0.31349 8.2841 2.5991 19.32 11.779 21.472 8.7326 0.82572 13.391-8.9729 14.138-16.342 0.6923-6.2087-0.21015-13.787-4.0466-18.963" style="paint-order:normal"/><path d="m1010.6 83.397c-1.7187-0.44866-2.1239-1.659-1.6752-3.3777 0.4486-1.7186 2.2055-2.7482 3.9241-2.2995" style="paint-order:normal"/><path d="m909.25 287.22c2.6616 9.1655-15.781 38.554-4.3904 42.646 10.67 3.834 24.993-43.584 23.896-47.06"/><path d="m916.96 136.55c-8.7275-5.2767-20.027-8.2-31.743-8.2123-11.724 0.0145-23.03 2.9441-31.758 8.2293" style="paint-order:normal"/></g></g><g stroke-linejoin="bevel" stroke-width="1.4176"><path d="m875.81-0.377c-14.31 45.874-96.95 98.836-144.78 90.439 37.552-8.103 69.426-23.539 82.567-63.173" style="paint-order:normal"/><path d="m818.98 63.372c49.149 1.8278 66.908-47.558 84.103-76.038" style="paint-order:normal"/><path d="m758.46 99.673c3.4077 11.324 10.193 21.381 16.354 31.673-1.5117-1.8897-16.864-19.465-28.915-39.972m-2.8513-4.3448c-6.6302-11.282-10.357-20.905-10.861-29.417-2.2276-37.637 3.5491-62.493 29.57-85.255 28.689-25.095 94.59-34.761 132.49-30.722 17.441 1.8584 31.341 3.7493 48.083 8.2796m7.264 2.1724c33.883 9.1681 59.744 23.821 70.615 50.993 16.616 41.532-4.8724 57.975-1.4429 74.51" style="paint-order:normal"/><path d="m941.68-45.868c2.6089-9.5669 9.7538-17.433 16.293-25.526-4.3835 9.4863-10.429 18.724-8.1465 27.698" style="paint-order:normal"/><path d="m862.12 49.446c31.107-16.953 57.174-50.11 97.487-37.474" style="paint-order:normal"/><path d="m955.53 1.6533c7.3673 21.356 34.972 47.634 52.171 71.259" style="paint-order:normal"/><path d="m995.99 9.5282c-6.1068 15.352 7.6306 44.39 11.948 63" style="paint-order:normal"/><path d="m1011.2 31.524c-4.2793 7.0927-3.6125 23.459-2.1724 41.276" style="paint-order:normal"/></g><path d="m1007.7 91.022 6.3365 19.298c0.9525-7.0115 0.362-13.166 3.3602-21.314" stroke-linejoin="round" stroke-width="1.4173" style="paint-order:normal"/></g><path d="m961.2 63.419c11.635-0.6929 14.272-1.8462 19.402-4.8535-1.6387 2.7596-8.158 6.2273-11.322 6.3946 4.9461 1.4937 12.33-3.8394 16.13-5.7841-4.3146 3.9712-7.7284 7.8152-15.507 9.5237z" fill="#8b4513" style="paint-order:normal"/><path d="m958.22 58.679c-9.1676 0.761-12.891 11.378-13.124 19.302-0.3169 8.3766 2.6285 19.535 11.91 21.712 8.83 0.835 13.54-9.0726 14.296-16.524 0.9821-8.8085-1.2051-20.348-10.317-24.071-0.9032-0.2787-1.8205-0.4158-2.7652-0.4187z" fill="#32cd32" stroke="#8b4513" stroke-linecap="round" stroke-width="1.8468" style="paint-order:normal"/></g></svg>
