<?xml version="1.0" encoding="UTF-8" standalone="no"?>
<!-- Created with Inkscape (http://www.inkscape.org/) -->

<svg
   xmlns:dc="http://purl.org/dc/elements/1.1/"
   xmlns:cc="http://creativecommons.org/ns#"
   xmlns:rdf="http://www.w3.org/1999/02/22-rdf-syntax-ns#"
   xmlns:svg="http://www.w3.org/2000/svg"
   xmlns="http://www.w3.org/2000/svg"
   xmlns:sodipodi="http://sodipodi.sourceforge.net/DTD/sodipodi-0.dtd"
   xmlns:inkscape="http://www.inkscape.org/namespaces/inkscape"
   width="2100"
   height="2500"
   viewBox="0 0 555.62499 661.45834"
   version="1.1"
   id="svg8"
   sodipodi:docname="ChibiSteph.svg"
   inkscape:version="0.92.1 r15371">
  <defs
     id="defs2" />
  <sodipodi:namedview
     id="base"
     pagecolor="#ffffff"
     bordercolor="#666666"
     borderopacity="1.0"
     inkscape:pageopacity="0.0"
     inkscape:pageshadow="2"
     inkscape:zoom="0.35"
     inkscape:cx="400"
     inkscape:cy="560"
     inkscape:document-units="px"
     inkscape:current-layer="layer1"
     showgrid="false"
     units="px"
     inkscape:showpageshadow="false"
     borderlayer="true"
     inkscape:snap-path-clip="true"
     inkscape:snap-path-mask="true"
     inkscape:pagecheckerboard="true"
     inkscape:object-nodes="false" />
  <metadata
     id="metadata5">
    <rdf:RDF>
      <cc:Work
         rdf:about="">
        <dc:format>image/svg+xml</dc:format>
        <dc:type
           rdf:resource="http://purl.org/dc/dcmitype/StillImage" />
        <dc:title></dc:title>
        <dc:creator>
          <cc:Agent>
            <dc:title>Oz Locke</dc:title>
          </cc:Agent>
        </dc:creator>
        <dc:rights>
          <cc:Agent>
            <dc:title>All rights retained by Cuddly Cthulhu Creatives unless provable otherwise (transferal of rights will usualy be provided by email)</dc:title>
          </cc:Agent>
        </dc:rights>
        <dc:publisher>
          <cc:Agent>
            <dc:title>Cuddly Cthulhu Creatives</dc:title>
          </cc:Agent>
        </dc:publisher>
      </cc:Work>
    </rdf:RDF>
  </metadata>
  <g
     inkscape:label="Layer 1"
     inkscape:groupmode="layer"
     id="layer1"
     transform="translate(0,364.45836)">
    <g
       id="g3012"
       transform="translate(-2.5127954,-12.186309)">
      <path
         inkscape:export-ydpi="96"
         inkscape:export-xdpi="96"
         inkscape:export-filename="E:\Dropbox\Locke Data\hugo\itsalocke\themes\hugo-lockedata\static\img\header-bg.png"
         inkscape:connector-curvature="0"
         style="display:inline;opacity:1;vector-effect:none;fill:none;fill-opacity:1;stroke:#8b4513;stroke-width:2.10659528;stroke-linecap:round;stroke-linejoin:round;stroke-miterlimit:4;stroke-dasharray:none;stroke-dashoffset:0;stroke-opacity:1;paint-order:stroke markers fill"
         d="m 315.75239,-327.14071 c -10.70055,0 -19.31506,12.62087 -19.31506,28.29819 v 580.96577 h 38.63009 v -580.96577 c 0,-15.67732 -8.6145,-28.29819 -19.31503,-28.29819 z"
         id="path1862" />
      <g
         inkscape:export-ydpi="96"
         inkscape:export-xdpi="96"
         inkscape:export-filename="E:\Dropbox\Locke Data\hugo\itsalocke\themes\hugo-lockedata\static\img\header-bg.png"
         style="display:inline;stroke-width:0.70310915"
         transform="matrix(0.608348,0,0,0.608348,11.2298,-744.60124)"
         id="g2585">
        <path
           style="color:#000000;font-style:normal;font-variant:normal;font-weight:normal;font-stretch:normal;font-size:medium;line-height:normal;font-family:sans-serif;font-variant-ligatures:normal;font-variant-position:normal;font-variant-caps:normal;font-variant-numeric:normal;font-variant-alternates:normal;font-feature-settings:normal;text-indent:0;text-align:start;text-decoration:none;text-decoration-line:none;text-decoration-style:solid;text-decoration-color:#000000;letter-spacing:normal;word-spacing:normal;text-transform:none;writing-mode:lr-tb;direction:ltr;text-orientation:mixed;dominant-baseline:auto;baseline-shift:baseline;text-anchor:start;white-space:normal;shape-padding:0;clip-rule:nonzero;display:inline;overflow:visible;visibility:visible;opacity:1;isolation:auto;mix-blend-mode:normal;color-interpolation:sRGB;color-interpolation-filters:linearRGB;solid-color:#000000;solid-opacity:1;vector-effect:none;fill:#8b4513;fill-opacity:1;fill-rule:nonzero;stroke:#ffffff;stroke-width:14.06218243;stroke-linecap:round;stroke-linejoin:round;stroke-miterlimit:4;stroke-dasharray:none;stroke-dashoffset:0;stroke-opacity:1;paint-order:stroke markers fill;color-rendering:auto;image-rendering:auto;shape-rendering:auto;text-rendering:auto;enable-background:accumulate"
           d="m 498.98547,685.34514 c -9.76292,0 -18.43596,5.7767 -24.50497,14.66834 -6.06904,8.89164 -9.70743,20.97442 -9.70743,34.31056 v 59.12199 h -61.0376 c -18.91115,0 -34.2124,15.30125 -34.2124,34.21237 v 108.85744 c 0,18.91108 15.30125,34.21238 34.2124,34.21238 h 61.0376 v 718.58508 a 2.4627463,2.4627463 0 0 0 2.4624,2.4624 h 63.5 a 2.4627463,2.4627463 0 0 0 2.46237,-2.4624 V 970.72822 h 139.60594 12.14604 c 1.51693,0 3.00728,-0.1056 4.46844,-0.2951 22.61637,-0.7209 62.59029,-3.049 85.27339,-11.8659 19.2917,-7.4987 44.7087,-15.80393 65.4606,-27.64123 10.3759,-5.91862 19.6124,-12.72865 26.3193,-20.90208 6.7068,-8.1734 10.8476,-17.79373 10.7869,-28.89486 -0.06,-11.01571 -4.2658,-20.48883 -10.9998,-28.48509 -6.734,-7.99627 -15.9587,-14.60019 -26.3059,-20.32434 -20.6944,-11.44831 -45.9897,-19.41044 -65.2611,-26.90119 -16.3633,-6.3604 -41.66511,-9.29093 -63.06337,-10.76164 -21.39825,-1.47069 -38.83432,-1.39938 -38.83432,-1.39938 a 2.4627463,2.4627463 0 0 0 -0.93223,0.18862 H 533.19784 v -59.12199 c 0,-13.33614 -3.63839,-25.41892 -9.70743,-34.31056 -6.06902,-8.89164 -14.74206,-14.66834 -24.50494,-14.66834 z m 0,4.92474 c 7.82658,0 15.02838,4.59611 20.43697,12.52017 5.40861,7.92408 8.85063,19.09992 8.85063,31.53399 v 61.58436 a 2.4627463,2.4627463 0 0 0 2.4624,2.46237 h 142.06831 a 2.4627463,2.4627463 0 0 0 0.91106,-0.17671 c 1.30368,-0.003 17.21766,-0.0231 37.57599,1.37615 21.20496,1.4574 46.40122,4.52432 61.61692,10.43863 19.5237,7.58881 44.613,15.5298 64.6612,26.6206 10.0241,5.54538 18.76,11.86934 24.9225,19.18693 6.1624,7.3176 9.7888,15.54416 9.8423,25.33954 0.054,9.8779 -3.523,18.25334 -9.6697,25.74417 -6.1468,7.49083 -14.8995,14.01352 -24.952,19.74762 -20.1049,11.46824 -45.301,19.74822 -64.8043,27.32912 -21.1124,8.2064 -61.28333,10.8232 -83.71428,11.5362 a 2.4627463,2.4627463 0 0 0 -0.25114,0.021 c -1.30673,0.1763 -2.6388,0.2693 -3.99251,0.2693 H 672.80378 530.73547 a 2.4627463,2.4627463 0 0 0 -2.4624,2.4623 V 1686.8507 H 469.69784 V 968.26562 a 2.4627463,2.4627463 0 0 0 -2.46237,-2.4623 h -63.5 c -16.26788,0 -29.28763,-13.0198 -29.28763,-29.28768 V 827.6584 c 0,-16.26788 13.01975,-29.28763 29.28763,-29.28763 h 63.5 a 2.4627463,2.4627463 0 0 0 2.46237,-2.46237 v -61.58436 c 0,-12.43407 3.44202,-23.60991 8.85063,-31.53399 5.40858,-7.92406 12.61038,-12.52017 20.437,-12.52017 z"
           id="path2322"
           inkscape:connector-curvature="0" />
        <path
           style="opacity:1;vector-effect:none;fill:#a05a2c;fill-opacity:1;stroke:none;stroke-width:11.25868607;stroke-linecap:round;stroke-linejoin:round;stroke-miterlimit:4;stroke-dasharray:none;stroke-dashoffset:0;stroke-opacity:1;paint-order:stroke markers fill"
           d="m 498.98547,687.80751 c -17.5895,0 -31.75,20.74629 -31.75,46.51652 v 954.98927 h 63.5 V 734.32403 c 0,-25.77023 -14.1605,-46.51652 -31.75,-46.51652 z"
           id="rect1841"
           inkscape:connector-curvature="0" />
        <path
           style="opacity:1;vector-effect:none;fill:#a05a2c;fill-opacity:1;stroke:none;stroke-width:7.93498135;stroke-linecap:round;stroke-linejoin:round;stroke-miterlimit:4;stroke-dasharray:none;stroke-dashoffset:0;stroke-opacity:1;paint-order:stroke markers fill"
           d="m 672.80371,795.71978 v 0.18862 H 403.73537 c -17.5895,0 -31.75,14.1605 -31.75,31.75 v 108.85744 c 0,17.58948 14.1605,31.74998 31.75,31.74998 h 269.06834 12.14604 c 1.46661,0 2.90896,-0.1008 4.32168,-0.2914 22.51797,-0.7158 62.61992,-3.1864 84.52822,-11.7022 38.7951,-15.0795 101.2257,-33.1717 100.9964,-75.12975 -0.2274,-41.62216 -62.2013,-58.34952 -100.9964,-73.4291 -31.57904,-12.27468 -100.99594,-11.99359 -100.99594,-11.99359 z"
           id="path1845"
           inkscape:connector-curvature="0"
           sodipodi:nodetypes="ccsssscsccssc" />
        <path
           sodipodi:nodetypes="ccsssscsccssc"
           inkscape:connector-curvature="0"
           id="path1864"
           d="m 672.80371,795.71978 v 0.18862 H 403.73537 c -17.5895,0 -31.75,14.1605 -31.75,31.75 v 108.85744 c 0,17.58948 14.1605,31.74998 31.75,31.74998 h 269.06834 12.14604 c 1.46661,0 2.90896,-0.1008 4.32168,-0.2914 22.51797,-0.7158 62.61992,-3.1864 84.52822,-11.7022 38.7951,-15.0795 101.2257,-33.1717 100.9964,-75.12975 -0.2274,-41.62216 -62.2013,-58.34952 -100.9964,-73.4291 -31.57904,-12.27468 -100.99594,-11.99359 -100.99594,-11.99359 z"
           style="opacity:1;vector-effect:none;fill:none;fill-opacity:1;stroke:#8b4513;stroke-width:3.46281266;stroke-linecap:round;stroke-linejoin:round;stroke-miterlimit:4;stroke-dasharray:none;stroke-dashoffset:0;stroke-opacity:1;paint-order:stroke markers fill" />
        <text
           xml:space="preserve"
           style="font-style:normal;font-variant:normal;font-weight:normal;font-stretch:normal;font-size:81.68153381px;line-height:1.25;font-family:'Berlin Sans FB';-inkscape-font-specification:'Berlin Sans FB';letter-spacing:0px;word-spacing:0px;fill:#e9c6af;fill-opacity:1;stroke:none;stroke-width:1.43577576"
           x="384.76578"
           y="909.63184"
           id="text1856"><tspan
             sodipodi:role="line"
             id="tspan1854"
             x="384.76578"
             y="909.63184"
             style="font-style:normal;font-variant:normal;font-weight:normal;font-stretch:normal;font-family:'Berlin Sans FB';-inkscape-font-specification:'Berlin Sans FB';fill:#e9c6af;stroke-width:1.43577576">Data Science</tspan></text>
      </g>
      <path
         inkscape:export-ydpi="96"
         inkscape:export-xdpi="96"
         inkscape:export-filename="E:\Dropbox\Locke Data\hugo\itsalocke\themes\hugo-lockedata\static\img\header-bg.png"
         style="color:#000000;font-style:normal;font-variant:normal;font-weight:normal;font-stretch:normal;font-size:medium;line-height:normal;font-family:sans-serif;font-variant-ligatures:normal;font-variant-position:normal;font-variant-caps:normal;font-variant-numeric:normal;font-variant-alternates:normal;font-feature-settings:normal;text-indent:0;text-align:start;text-decoration:none;text-decoration-line:none;text-decoration-style:solid;text-decoration-color:#000000;letter-spacing:normal;word-spacing:normal;text-transform:none;writing-mode:lr-tb;direction:ltr;text-orientation:mixed;dominant-baseline:auto;baseline-shift:baseline;text-anchor:start;white-space:normal;shape-padding:0;clip-rule:nonzero;display:inline;overflow:visible;visibility:visible;opacity:1;isolation:auto;mix-blend-mode:normal;color-interpolation:sRGB;color-interpolation-filters:linearRGB;solid-color:#000000;solid-opacity:1;vector-effect:none;fill:#ffffff;fill-opacity:1;fill-rule:nonzero;stroke:#ffffff;stroke-width:8.55470085;stroke-linecap:round;stroke-linejoin:miter;stroke-miterlimit:4;stroke-dasharray:none;stroke-dashoffset:0;stroke-opacity:1;color-rendering:auto;image-rendering:auto;shape-rendering:auto;text-rendering:auto;enable-background:accumulate"
         d="m 276.02419,-183.17302 c -6.19551,7.66744 -12.98427,15.24784 -16.89879,24.06986 -19.26752,-5.20441 -35.30407,-7.38464 -55.32705,-9.51822 -5.48744,-0.58469 -11.47144,-0.92107 -17.80857,-1.00635 -19.01142,-0.25556 -41.19714,1.75188 -62.66106,6.12149 -28.61855,5.82618 -55.942446,15.81449 -72.705879,30.47807 -30.160601,26.3828 -36.952907,55.526403 -34.383543,98.936171 0.577651,9.759523 4.706464,20.592224 11.944893,33.13486749 C 24.139104,0.120091 20.016474,1.1031157 15.827158,2.0071199 l 0.04498,2.2741862 c 5.136249,0.9015533 10.59716,1.1997682 16.291718,0.9616152 6.960607,11.8429787 14.858885,22.8170997 21.237121,31.1087557 6.37982,8.293665 11.320322,14.004774 12.088563,14.965034 l 1.898499,-1.319062 C 62.011043,41.015798 56.276384,32.250374 52.136254,22.972566 c 15.069564,18.849821 36.266205,35.323 58.077496,47.996547 8.31453,4.831207 16.71046,9.110749 24.89925,12.751888 -1.61767,2.261375 -5.62119,7.671584 -10.6019,13.044649 -3.25647,3.51293 -6.92107,6.9881 -10.5167,9.49488 -3.59563,2.5069 -7.10049,3.97609 -9.90463,3.82597 -1.60912,-0.0859 -3.06886,-1.23157 -4.538907,-3.26155 -1.470053,-2.03013 -2.814695,-4.80746 -4.1384,-7.495026 -1.323705,-2.687587 -2.594196,-5.281314 -4.270129,-7.104177 -0.837962,-0.911387 -1.820989,-1.662932 -3.034638,-1.960496 -1.21365,-0.297419 -2.567823,-0.04353 -3.787868,0.685373 -3.907823,2.333919 -5.911075,6.502755 -6.463826,11.185746 -0.55273,4.68288 0.255879,9.97768 1.986533,15.11593 3.461286,10.27658 10.518533,20.10595 19.179862,22.26764 8.514653,2.1251 15.603533,-2.46747 20.347453,-7.3526 0.1725,-0.17755 0.34134,-0.35571 0.50834,-0.53438 -1.50288,4.12944 -2.98226,8.4456 -4.37009,12.87254 -4.24781,13.55024 -7.65534,28.1127 -8.28151,41.3926 -0.62619,13.27993 1.51078,25.37234 8.68799,33.72303 3.2069,3.73121 7.05229,6.75765 11.40136,9.18317 0.0676,0.46305 0.0898,1.26795 -0.12922,2.36336 -0.33165,1.65884 -1.06356,3.85837 -2.05065,6.34975 -1.97418,4.98285 -4.95206,11.15736 -7.70526,17.1918 -2.75321,6.03433 -5.28752,11.90469 -6.389,16.54195 -0.55074,2.31859 -0.79036,4.33466 -0.31249,6.10139 0.47787,1.7666 2.08746,3.18433 4.09816,3.34205 5.18697,0.40679 9.62172,-2.73237 13.19454,-7.22519 3.57281,-4.49292 6.46071,-10.45904 8.78073,-16.43958 3.59316,-9.26219 5.78315,-18.5227 6.59617,-22.26198 1.5638,0.3576 3.15875,0.673 4.78191,0.94722 13.21421,2.23314 28.3429,1.81751 43.8663,0.0257 a 1.4930694,1.4930694 0 0 0 0.76487,-2.67622 c -0.12794,-1.07164 -0.25019,-2.14272 -0.36814,-3.21381 l 16.29835,-2.73111 a 1.4930694,1.4930694 0 0 0 0.0192,-0.0113 c 0.55767,1.60817 1.14487,3.22175 1.76458,4.84205 a 1.4930694,1.4930694 0 0 0 2.35246,0.65224 1.4930694,1.4930694 0 0 0 0.21031,-0.0233 c 2.22226,-0.40189 4.41877,-0.82097 6.58861,-1.24988 0.16781,2.17901 -0.42178,5.589 -1.53068,9.4604 -1.33008,4.64327 -3.28057,9.99702 -4.93437,15.21461 -1.65384,5.21768 -3.02978,10.28128 -3.13557,14.57407 -0.0529,2.14641 0.20924,4.12732 1.03837,5.82944 0.82914,1.70197 2.2906,3.07005 4.25503,3.77586 2.04394,0.73448 4.21642,0.18302 6.08342,-1.05627 1.86701,-1.23936 3.59212,-3.14931 5.27896,-5.51311 1.49774,-2.09899 2.95864,-4.56728 4.36286,-7.26109 a 1.4930694,1.4930694 0 0 0 0.39864,-0.77567 c 1.6125,-3.16627 3.14701,-6.61601 4.57065,-10.13528 2.77064,-6.84917 5.10609,-13.93861 6.67978,-19.59893 0.78687,-2.83022 1.3838,-5.30041 1.74917,-7.22773 0.1827,-0.96371 0.30827,-1.78894 0.36938,-2.48446 0.0161,-0.18282 0.032,-0.35158 0.0431,-0.51407 15.30445,-3.88143 25.67764,-7.2391 25.67764,-7.2391 l 1.42442,-0.45958 -0.46464,-1.42343 c 0,0 -5.52111,-16.91526 -10.07562,-38.41039 -1.8925,-8.9315 -3.60403,-18.65786 -4.68888,-28.26236 0.78722,1.05325 1.6821,2.19295 2.63571,3.30121 1.5792,1.83535 3.30055,3.59136 5.08781,4.76346 0.8936,0.58583 1.81205,1.03883 2.81486,1.21406 1.00284,0.17522 2.14303,0 3.04754,-0.64734 3.67359,-2.63869 4.40038,-7.36277 3.67628,-12.37031 -0.72411,-5.00743 -2.84304,-10.60415 -5.32546,-15.90843 -4.60573,-9.84121 -10.45075,-18.56671 -11.28221,-19.79234 0.14899,-5.84482 -3.51354,-12.558497 -7.19285,-18.246169 -2.79772,-4.324738 -5.68833,-7.978177 -7.29565,-9.926921 7.18278,-3.297191 14.4881,-7.066916 21.72629,-11.25583 27.8827,-16.13634 54.69266,-38.503874 68.99441,-64.375641 l 6.63325,20.201281 a 1.1586278,1.1586278 0 0 0 2.24902,-0.205578 c 1.10655,-8.145139 0.45041,-15.000647 3.72186,-24.0318076 1.65194,-2.4703172 2.60993,-5.7392512 2.60993,-9.3224624 0,-2.4406122 -0.44528,-4.735468 -1.25059,-6.731991 -0.78527,-8.344016 3.7344,-17.253189 6.81118,-29.45665 3.33288,-13.219188 4.73092,-30.232317 -4.9023,-54.310337 -12.61292,-31.525834 -42.53098,-48.545764 -81.34295,-59.138194 0.47991,-8.06589 5.64961,-16.60398 9.78263,-25.54821 z m -4.57223,9.34968 c -3.80012,7.78766 -7.01977,15.60991 -5.01268,23.50225 a 1.1588469,1.1588469 0 1 0 2.24556,-0.57119 c -0.26182,-1.02969 -0.41908,-2.06773 -0.48664,-3.11392 38.18889,10.51417 67.00249,27.13791 79.18792,57.595231 9.46608,23.660276 8.06417,39.966047 4.8074,52.883342 -2.55864,10.148342 -6.40948,18.248831 -6.93256,26.128235 -1.59516,-1.778569 -3.67864,-2.932449 -6.01018,-2.932449 -2.7799,0 -4.60359,1.668602 -5.42984,3.186666 -0.82622,1.51818 -0.9258,3.004883 -0.9258,3.004883 a 1.4933344,1.4933344 0 1 0 2.97772,0.230712 c 0,0 0.0867,-0.920098 0.57026,-1.8086 0.48355,-0.888472 1.09382,-1.627764 2.80766,-1.627764 1.6487,0 3.23943,0.984147 4.51503,2.875428 1.27561,1.891488 2.12796,4.6377852 2.12799,7.6972389 0,3.0594537 -0.85238,5.80430418 -2.12799,7.69582187 -1.2756,1.89137033 -2.86633,2.87531023 -4.51503,2.87531023 -0.70731,0 -1.31818,-0.2753591 -1.95444,-0.817544 -0.63627,-0.5421548 -1.23812,-1.3498641 -1.72309,-2.19239003 -0.96991,-1.68490235 -1.45649,-3.40999297 -1.45649,-3.40999297 a 1.4930694,1.4930694 0 1 0 -2.87776,0.796311 c 0,0 0.52305,1.91313355 1.64385,3.9199326 a 1.4930694,1.4930694 0 0 0 -0.50929,0.5746667 C 318.88127,28.805092 291.6386,51.903993 263.17516,68.376513 234.7117,84.849016 204.94749,94.675602 187.0533,94.675602 c -17.66632,0 -47.10598,-9.882958 -75.34001,-26.288486 C 83.751987,52.140163 56.891323,29.514684 43.111546,4.1794297 65.897336,0.78045006 91.30443,-9.9351964 114.34616,-24.464294 c 32.83076,-20.701713 60.87328,-49.156368 69.24843,-76.005566 a 1.1588469,1.1588469 0 0 0 -1.11699,-1.51963 1.1588469,1.1588469 0 0 0 -1.09557,0.82923 c -8.07296,25.880684 -35.75096,54.229315 -68.27167,74.735498 C 83.01475,-7.4476929 48.80106,4.7736153 22.489342,2.7427205 24.993014,2.1425115 27.472925,1.5092594 29.926441,0.83983346 A 1.1588469,1.1588469 0 0 0 30.463702,0.69118412 C 67.584788,-9.5351955 98.524522,-28.22911 112.07796,-69.108983 a 1.1591684,1.1591684 0 1 0 -2.2006,-0.729347 C 96.657217,-29.963799 66.919816,-11.698676 30.498601,-1.5871649 23.168867,-14.185914 19.105422,-24.891285 18.55277,-34.228719 c -2.551863,-43.113673 3.936461,-71.111191 33.595738,-97.055271 16.212545,-14.18179 43.25131,-24.17043 71.642662,-29.95029 28.39134,-5.77984 58.1469,-7.3863 79.76229,-5.08309 19.88738,2.11907 35.69773,4.26859 54.68258,9.37558 -0.43832,1.1549 -0.82848,2.33056 -1.15626,3.53257 a 1.1588696,1.1588696 0 1 0 2.23613,0.60958 c 2.07872,-7.62281 6.84281,-14.36974 12.13605,-21.0237 z M 39.974108,4.6035275 a 1.4931219,1.4931219 0 0 0 0.100334,0.2386251 c 2.031064,3.8130083 4.343075,7.5563794 6.896065,11.2215354 2.419666,7.396932 6.050817,14.285933 9.978193,21.023261 C 56.313036,36.27478 55.912113,35.815398 55.237878,34.938855 49.084674,26.939707 41.512811,16.42652 34.773172,5.0970476 36.488391,4.9779572 38.222103,4.814808 39.974153,4.6035275 Z M 335.77476,5.5818569 c 0.95477,0.7004569 2.13782,1.2018922 3.47602,1.2018922 1.27208,0 2.47026,-0.344305 3.55587,-0.9450808 -1.45112,5.4275187 -1.71083,10.1570517 -2.06228,14.8764187 z M 240.12253,83.490646 c 1.37343,1.636392 4.57117,5.575843 7.61095,10.274931 4.00931,6.197801 7.46829,13.771293 6.53173,18.195823 -3.98827,18.84144 -0.30808,45.0863 4.28206,66.74949 4.29305,20.26099 9.07441,35.24779 9.72292,37.26383 -3.56836,1.13126 -27.2371,8.50182 -55.44369,13.62368 -9.05666,-24.30649 -10.8804,-47.26412 -13.32341,-72.55885 a 1.4930694,1.4930694 0 0 0 -1.50428,-1.37098 1.4930694,1.4930694 0 0 0 -1.4675,1.65735 c 2.22904,23.07917 3.9519,44.51477 11.26617,66.92396 l -15.67084,2.62611 c -2.41545,-23.52523 -2.8948,-46.96209 -8.72101,-71.17907 a 1.4930694,1.4930694 0 0 0 -1.53413,-1.16191 1.4930694,1.4930694 0 0 0 -1.36973,1.86081 c 6.19958,25.76886 6.25965,50.90166 9.29411,76.58925 -14.6776,1.58591 -28.8661,1.85622 -41.11835,-0.21438 -1.80231,-0.30457 -3.55995,-0.66128 -5.27235,-1.06887 a 1.4933469,1.4933469 0 0 0 -1.60172,-0.39852 c -4.39798,-1.15335 -8.46632,-2.67655 -12.14013,-4.6204 -0.0216,-0.0312 -0.0405,-0.0625 -0.0632,-0.0926 a 1.4930694,1.4930694 0 0 0 -1.23391,-0.61931 c -3.90588,-2.23224 -7.33159,-4.97351 -10.18692,-8.29569 -6.43231,-7.48397 -8.57722,-18.76502 -7.97029,-31.63652 0.60692,-12.87154 3.94743,-27.23938 8.14854,-40.64061 2.64988,-8.45284 5.63736,-16.51547 8.48649,-23.59668 a 1.4931502,1.4931502 0 0 0 0.0113,-0.0278 c 6.1803,-15.35699 11.70472,-26.08224 11.70472,-26.08224 a 1.4930694,1.4930694 0 0 0 -1.37603,-2.1944 1.4930694,1.4930694 0 0 0 -1.27821,0.82679 c 0,0 -5.57139,10.80648 -11.811,26.30924 -0.14378,0.28203 -2.62146,5.08412 -6.8662,9.45505 -4.37381,4.50399 -10.32196,8.3226 -17.483819,6.53521 -6.868152,-1.71414 -13.831026,-10.70145 -17.072012,-20.3238 -1.620488,-4.81133 -2.333339,-9.73697 -1.852283,-13.8127 0.481067,-4.075637 2.066645,-7.203511 5.029643,-8.973049 0.716132,-0.427664 1.124331,-0.451994 1.547028,-0.348412 0.422698,0.103794 0.951521,0.432574 1.547029,1.080236 1.191005,1.295301 2.476719,3.736562 3.790078,6.403065 1.313347,2.6666 2.684775,5.56255 4.397449,7.92748 1.712675,2.36516 3.902887,4.33623 6.797667,4.49126 3.90801,0.20927 7.89902,-1.65756 11.77264,-4.35821 3.8736,-2.70055 7.65248,-6.30396 10.99894,-9.913982 5.55903,-5.996922 9.88423,-11.977337 11.20612,-13.853235 18.88403,8.108432 36.47231,12.719551 49.14617,12.719551 13.57293,0 32.72314,-5.140813 53.06924,-14.170967 z m 16.63596,31.326304 c 2.26287,3.55365 6.08528,9.86328 9.25293,16.63175 0.1596,0.34109 0.31703,0.68326 0.47282,1.02611 l -6.59082,16.51468 c -2.10709,-2.72092 -3.64516,-5.15418 -3.64516,-5.15418 a 1.4930694,1.4930694 0 0 0 -0.0727,-0.10491 c -0.8734,-10.42181 -0.87653,-20.46165 0.58286,-28.91304 z m 11.38627,21.55269 c 1.41356,3.56348 2.49655,7.0735 2.94127,10.1488 0.64953,4.49192 -0.006,7.75204 -2.46312,9.51744 -0.22438,0.16115 -0.38455,0.20166 -0.79252,0.13047 -0.408,-0.0714 -1.01246,-0.32523 -1.69071,-0.76997 -1.24135,-0.81407 -2.70351,-2.22444 -4.07992,-3.77911 z m -26.31425,90.02364 c -0.0593,0.46797 -0.14871,1.03012 -0.27067,1.67342 -0.34139,1.80089 -0.92113,4.21035 -1.69196,6.98286 -1.54165,5.54504 -3.8513,12.55526 -6.57195,19.28075 -1.33418,3.29817 -2.77176,6.52906 -4.25849,9.48372 -2.79353,0.0748 -5.75257,1.01005 -8.39784,1.31573 -1.48843,0.1719 -2.83356,0.15258 -3.89727,-0.17233 -0.99498,-0.30401 -1.77522,-0.81214 -2.45934,-1.87117 0.49356,-1.97465 1.10357,-4.05488 1.77496,-6.17307 1.62679,-5.13231 3.58448,-10.49377 4.95954,-15.29416 1.18798,-4.14739 2.03127,-7.83585 1.62436,-10.87948 6.83659,-1.40085 13.32191,-2.89571 19.18866,-4.34627 z m -111.48468,3.96647 c 3.1701,1.49598 6.56871,2.71329 10.15298,3.68358 -0.77435,3.57084 -2.9345,12.76739 -6.47985,21.90639 -1.43793,3.70664 -3.10514,7.38163 -4.96614,10.62044 -3.32432,0.64229 -5.13359,0.57912 -6.79452,0.10826 -1.56988,-0.44453 -3.16325,-1.36049 -5.64363,-2.60078 1.03861,-2.57352 2.25592,-5.33208 3.53229,-8.12961 2.73447,-5.99335 5.72349,-12.17878 7.76469,-17.33076 1.02059,-2.57597 1.80869,-4.88656 2.20408,-6.86399 0.0956,-0.47845 0.17653,-0.9433 0.2301,-1.39397 z m 83.17356,36.23876 c 0.72599,0.55926 1.52531,0.96191 2.35087,1.21404 1.67091,0.51037 3.4126,0.48025 5.11263,0.28391 2.24318,-0.25915 4.48862,-0.79082 6.36384,-1.08746 -1.00699,1.80366 -2.02687,3.45231 -3.04406,4.87785 -1.56166,2.1885 -3.12489,3.8465 -4.50087,4.75989 -1.37597,0.91337 -2.4006,1.10143 -3.42288,0.73404 -1.30872,-0.4702 -2.05022,-1.18716 -2.57973,-2.27422 -0.52955,-1.0869 -0.78211,-2.60043 -0.73659,-4.44705 0.0302,-1.22945 0.1944,-2.59718 0.45679,-4.061 z m -97.98711,0.27967 c 2.27896,1.15793 3.93057,2.11261 5.91211,2.67375 1.58669,0.44943 3.30036,0.58305 5.50559,0.3547 -0.41407,0.59406 -0.83559,1.16448 -1.26503,1.70446 -3.25411,4.09214 -6.76291,6.40897 -10.62454,6.10606 -1.07389,-0.0837 -1.21158,-0.26796 -1.44863,-1.14429 -0.23704,-0.87633 -0.16054,-2.54452 0.33513,-4.63132 0.3556,-1.4971 0.9046,-3.20946 1.58537,-5.06336 z"
         id="path1723"
         inkscape:connector-curvature="0" />
      <g
         inkscape:export-ydpi="96"
         inkscape:export-xdpi="96"
         inkscape:export-filename="E:\Dropbox\Locke Data\hugo\itsalocke\themes\hugo-lockedata\static\img\header-bg.png"
         id="g1839"
         transform="matrix(2.9529368,0,0,2.9529368,-63.059543,-500.75504)"
         style="display:inline;stroke-width:0.70310915">
        <path
           style="display:inline;opacity:1;fill:#ffdab9;fill-opacity:1;fill-rule:nonzero;stroke:none;stroke-width:0.26584864;stroke-linecap:round;stroke-linejoin:miter;stroke-miterlimit:4;stroke-dasharray:none;stroke-dashoffset:0;stroke-opacity:1;paint-order:normal"
           d="m 109.83963,221.10694 c 0.0129,0.0607 2.01647,3.2717 3.42273,1.39507 1.87876,-2.50717 -0.85336,-7.76776 -0.88423,-7.75603 z"
           id="path1725"
           inkscape:connector-curvature="0"
           sodipodi:nodetypes="cscc"
           inkscape:export-xdpi="96"
           inkscape:export-ydpi="96" />
        <path
           style="display:inline;opacity:1;fill:#ffdab9;fill-opacity:1;fill-rule:nonzero;stroke:none;stroke-width:0.26584864;stroke-linecap:round;stroke-linejoin:miter;stroke-miterlimit:4;stroke-dasharray:none;stroke-dashoffset:0;stroke-opacity:1;paint-order:normal"
           d="m 50.243911,211.88819 c -0.45512,0.84024 -4.16829,-9.21752 -0.16667,-10.91105 2.4265,-1.02694 4.48437,5.16824 4.47739,5.16724 z"
           id="path1727"
           inkscape:connector-curvature="0"
           sodipodi:nodetypes="cscc"
           inkscape:export-xdpi="96"
           inkscape:export-ydpi="96" />
        <path
           style="display:inline;opacity:1;fill:#cd853f;fill-opacity:1;fill-rule:nonzero;stroke:none;stroke-width:0.26584864;stroke-linecap:round;stroke-linejoin:miter;stroke-miterlimit:4;stroke-dasharray:none;stroke-dashoffset:0;stroke-opacity:1;paint-order:normal"
           d="m 60.420081,259.64925 5.05554,1.00131 c 0.0373,0.27945 -3.356,4.8557 -5.38122,3.77696 -1.62203,-0.86398 0.3246,-4.77827 0.32568,-4.77827 z"
           id="path1729"
           inkscape:connector-curvature="0"
           sodipodi:nodetypes="ccsc"
           inkscape:export-xdpi="96"
           inkscape:export-ydpi="96" />
        <path
           style="display:inline;opacity:1;fill:#add8e6;fill-opacity:1;fill-rule:nonzero;stroke:none;stroke-width:0.26584864;stroke-linecap:round;stroke-linejoin:miter;stroke-miterlimit:4;stroke-dasharray:none;stroke-dashoffset:0;stroke-opacity:1"
           d="m 64.955941,246.90818 c 0.69399,1.05093 -2.90446,8.46675 -4.7506,12.60211 1.98785,0.46967 2.52187,2.03895 5.60809,0.9033 1.83724,-2.89877 2.77078,-7.34855 3.85869,-11.93333 z"
           id="path1731"
           inkscape:connector-curvature="0"
           sodipodi:nodetypes="ccccc"
           inkscape:export-xdpi="96"
           inkscape:export-ydpi="96" />
        <path
           style="display:inline;opacity:1;fill:#add8e6;fill-opacity:1;fill-rule:nonzero;stroke:none;stroke-width:0.26584864;stroke-linecap:round;stroke-linejoin:miter;stroke-miterlimit:4;stroke-dasharray:none;stroke-dashoffset:0;stroke-opacity:1"
           d="m 96.540041,247.19402 c -0.43979,4.9561 -1.83784,7.99567 -2.78684,11.93335 0.74413,2.02328 3.5102,0.90927 5.70866,0.66045 2.374609,-4.78214 3.609179,-9.62113 4.652639,-14.02295 z"
           id="path1733"
           inkscape:connector-curvature="0"
           sodipodi:nodetypes="ccccc"
           inkscape:export-xdpi="96"
           inkscape:export-ydpi="96" />
        <path
           style="display:inline;opacity:1;fill:#ffffff;fill-opacity:1;fill-rule:nonzero;stroke:none;stroke-width:0.26584864;stroke-linecap:round;stroke-linejoin:miter;stroke-miterlimit:4;stroke-dasharray:none;stroke-dashoffset:0;stroke-opacity:1"
           d="m 54.554631,206.14438 -4.31072,5.74381 c 3.74535,7.68066 10.64505,4.91646 13.71163,-1.08019 -3.74728,10.75508 -7.78932,21.57781 -4.28743,30.66943 2.515116,6.29439 11.847418,9.50321 26.534484,7.85433 0.819211,-0.092 -0.776165,-1.79768 0.09213,-1.90965 2.414835,-0.3114 3.558714,-0.71291 6.524347,-1.00393 1.021233,-0.10021 -0.252162,1.80276 0.900702,1.69249 5.278888,-0.5049 14.067086,-3.19703 19.398326,-4.77534 -3.65923,-11.49243 -5.17742,-24.52017 -5.17742,-24.52017 0.77939,1.33546 1.89895,2.29178 1.89895,2.29178 l 2.53872,-6.33552 c 0,0 0.34379,-0.82816 -4.04787,-7.45053 -0.16037,-2.84065 -2.22129,-6.20922 -4.78764,-9.71819 l -36.014443,0.343 c -4.14006,5.33999 -9.51409,12.71211 -12.97377,8.19868 z"
           id="path1735"
           inkscape:connector-curvature="0"
           sodipodi:nodetypes="ccccsssscscccccc"
           inkscape:export-xdpi="96"
           inkscape:export-ydpi="96" />
        <path
           style="display:inline;opacity:1;fill:#ffdab9;fill-opacity:1;fill-rule:nonzero;stroke:none;stroke-width:0.35952613;stroke-linecap:round;stroke-linejoin:miter;stroke-miterlimit:4;stroke-dasharray:none;stroke-dashoffset:0;stroke-opacity:1"
           d="m 140.93727,145.06874 c 3.45793,32.31821 -35.51679,56.95959 -56.841059,56.84484 -21.81446,-0.11744 -60.51393,-27.51221 -54.65747,-56.76983 19.05861,-44.73926 110.766439,-23.73096 111.498529,-0.075 z"
           id="path1737"
           inkscape:connector-curvature="0"
           sodipodi:nodetypes="cscc"
           inkscape:export-xdpi="96"
           inkscape:export-ydpi="96" />
        <path
           style="display:inline;opacity:1;fill:#32cd32;fill-opacity:1;fill-rule:nonzero;stroke:none;stroke-width:0.35952613;stroke-linecap:round;stroke-linejoin:miter;stroke-miterlimit:4;stroke-dasharray:none;stroke-dashoffset:0;stroke-opacity:1;paint-order:normal"
           d="m 60.810391,160.64556 c -2.78704,1.88577 -5.65379,3.56295 -8.52317,5.00811 -2.1e-4,0.003 -4.2e-4,0.006 -6.3e-4,0.007 -0.009,0.1305 -0.0153,0.26019 -0.0191,0.38742 -0.004,0.1011 -0.006,0.20331 -0.008,0.3064 -10e-4,0.10305 -10e-4,0.20697 -2.1e-4,0.31173 0,8e-5 0,1.1e-4 0,2.1e-4 10e-4,0.1047 0.004,0.21015 0.008,0.31626 0.008,0.21241 0.021,0.4272 0.0398,0.64358 0.01,0.10815 0.0202,0.21654 0.0324,0.32526 1e-5,8e-5 -10e-6,1.1e-4 0,2.1e-4 0.0123,0.1086 0.0258,0.21756 0.041,0.32651 0.0455,0.32713 0.10457,0.65493 0.17781,0.97972 0.0244,0.10831 0.0503,0.21601 0.0779,0.32343 0.006,0.0231 0.0128,0.0461 0.0189,0.0691 0.0789,0.29861 0.16972,0.59351 0.27483,0.88126 0.11322,0.30998 0.24214,0.61183 0.38762,0.902 3e-5,6e-5 -3e-5,1.1e-4 0,2.1e-4 0.0485,0.0968 0.0988,0.19199 0.15095,0.2859 2e-5,5e-5 -3e-5,1e-4 0,2.2e-4 0.10441,0.18786 0.21658,0.37012 0.33634,0.54534 0.11981,0.17524 0.24738,0.34354 0.38311,0.50389 0.0679,0.0803 0.13785,0.15838 0.20981,0.23442 0.0719,0.076 0.14582,0.14985 0.22191,0.2215 3e-5,3e-5 2.1e-4,-3e-5 2.1e-4,0 0.2664,0.25062 0.55839,0.47337 0.87779,0.66224 5e-5,3e-5 10e-5,-3e-5 2.1e-4,0 0.0456,0.027 0.0917,0.0534 0.13843,0.0789 6e-5,2e-5 1.1e-4,-3e-5 2.1e-4,0 0.0934,0.0512 0.18915,0.0994 0.28713,0.14475 6e-5,3e-5 10e-5,-4e-5 2.1e-4,0 0.049,0.0227 0.0984,0.0447 0.14848,0.0658 6e-5,4e-5 1.1e-4,-3e-5 2.1e-4,0 0.15044,0.0635 0.3061,0.12031 0.467,0.16961 6e-5,4e-5 1e-4,-1e-5 2.1e-4,0 0.10725,0.0329 0.21677,0.0625 0.32876,0.0888 6e-5,1e-5 1e-4,-2e-5 2.1e-4,0 0.0532,0.005 0.10608,0.009 0.15853,0.012 0.0526,0.003 0.10467,0.005 0.15649,0.006 0.10159,0.002 0.20184,3.2e-4 0.30046,-0.005 0.052,-0.003 0.10369,-0.006 0.15484,-0.012 0.14029,-0.0135 0.27735,-0.0339 0.41141,-0.0614 0.0185,-0.005 0.0368,-0.008 0.0552,-0.012 0.0703,-0.0155 0.13962,-0.0329 0.20817,-0.052 0.0744,-0.0209 0.14772,-0.0439 0.22006,-0.0691 0.0287,-0.0105 0.0575,-0.0196 0.0859,-0.0303 9e-5,-3e-5 1.1e-4,-2.1e-4 2.1e-4,-2.1e-4 0.0879,-0.033 0.17438,-0.0688 0.25924,-0.10785 8e-5,-5e-5 1e-4,-2.1e-4 2.1e-4,-2.1e-4 0.0422,-0.0194 0.0829,-0.0416 0.12429,-0.0624 0.0913,-0.0459 0.18082,-0.0952 0.26846,-0.1479 0.0326,-0.0196 0.0662,-0.0375 0.0982,-0.0581 8e-5,-6e-5 1e-4,-1.1e-4 2.1e-4,-2.1e-4 0.31507,-0.20103 0.6054,-0.44456 0.87143,-0.72048 0.0665,-0.069 0.13158,-0.13995 0.19504,-0.2129 0.0635,-0.0729 0.1254,-0.14774 0.18581,-0.22416 0.12083,-0.15298 0.23551,-0.31277 0.34415,-0.47827 0.10863,-0.16548 0.21115,-0.3366 0.30763,-0.51212 0.0965,-0.17554 0.18696,-0.35548 0.27134,-0.53856 0.0422,-0.0915 0.0829,-0.18373 0.12202,-0.27667 0.0392,-0.093 0.0767,-0.18646 0.1128,-0.28057 0.0361,-0.094 0.0709,-0.18839 0.10398,-0.28322 0.26493,-0.75857 0.43337,-1.53759 0.50637,-2.25723 0.0151,-0.1356 0.0276,-0.27336 0.0388,-0.41202 0.003,-0.0366 0.006,-0.0732 0.008,-0.10995 0.009,-0.1176 0.0154,-0.23622 0.0209,-0.35564 10e-4,-0.024 0.003,-0.0479 0.004,-0.072 0.006,-0.14041 0.009,-0.28184 0.0105,-0.42413 3.1e-4,-0.0353 1.1e-4,-0.0708 2.1e-4,-0.1062 2.1e-4,-0.1152 -8.4e-4,-0.23097 -0.004,-0.34703 -8.4e-4,-0.0357 -10e-4,-0.0713 -0.003,-0.1071 -0.005,-0.14805 -0.0114,-0.29631 -0.0209,-0.44505 -5.2e-4,-0.007 -10e-4,-0.0163 -0.002,-0.0246 -0.01,-0.1446 -0.022,-0.28941 -0.0365,-0.43418 -0.002,-0.0237 -0.005,-0.0474 -0.007,-0.0713 -0.0324,-0.30633 -0.076,-0.6122 -0.13167,-0.91553 -0.007,-0.0372 -0.0137,-0.0744 -0.0209,-0.1116 -0.022,-0.1137 -0.0458,-0.22708 -0.0714,-0.33984 -0.005,-0.0207 -0.009,-0.0415 -0.0138,-0.0624 -2.1e-4,-8.4e-4 -4.2e-4,-0.002 -6.3e-4,-0.003 -0.0143,-0.0609 -0.0295,-0.1215 -0.0447,-0.18212 -0.008,-0.0315 -0.0158,-0.0629 -0.024,-0.0942 -0.0163,-0.0624 -0.033,-0.1245 -0.0504,-0.18643 -0.007,-0.0255 -0.0148,-0.0507 -0.0221,-0.0761 -0.0325,-0.11205 -0.067,-0.22334 -0.10336,-0.33369 -0.01,-0.0294 -0.0191,-0.0591 -0.0291,-0.0884 -0.0201,-0.0589 -0.0409,-0.1176 -0.0622,-0.17596 -0.0118,-0.0326 -0.0241,-0.0648 -0.0363,-0.0972 -0.0491,-0.13035 -0.10052,-0.25943 -0.15546,-0.38638 -0.0259,-0.0598 -0.053,-0.1188 -0.0802,-0.17782 -0.0113,-0.0244 -0.0226,-0.0489 -0.0341,-0.0732 -0.0286,-0.0604 -0.0575,-0.1206 -0.0876,-0.18008 -7.4e-4,-0.001 -10e-4,-0.003 -0.002,-0.005 -0.004,-0.009 -0.009,-0.0171 -0.0135,-0.0258 -0.0586,-0.11475 -0.12024,-0.22741 -0.18438,-0.3384 -0.0143,-0.0246 -0.0282,-0.0492 -0.0427,-0.0737 -0.0311,-0.0524 -0.063,-0.1044 -0.0954,-0.15586 -0.0172,-0.0273 -0.0348,-0.0543 -0.0523,-0.0811 -0.0667,-0.1026 -0.13579,-0.20325 -0.20776,-0.30168 -0.008,-0.012 -0.0161,-0.023 -0.0244,-0.0342 z"
           id="path1739"
           inkscape:connector-curvature="0"
           inkscape:export-xdpi="96"
           inkscape:export-ydpi="96" />
        <path
           style="display:inline;opacity:1;fill:#3b3b3b;fill-opacity:1;fill-rule:nonzero;stroke:none;stroke-width:0.34399766;stroke-linecap:round;stroke-linejoin:miter;stroke-miterlimit:4;stroke-dasharray:none;stroke-dashoffset:0;stroke-opacity:1;paint-order:normal"
           d="m 63.375851,174.54462 a 23.685404,15.989798 0 0 0 -0.0508,0.68332 23.685404,15.989798 0 0 0 23.68545,15.98977 23.685404,15.989798 0 0 0 23.685469,-15.98977 23.685404,15.989798 0 0 0 -0.0358,-0.68332 z"
           id="path1741"
           inkscape:connector-curvature="0"
           inkscape:export-xdpi="96"
           inkscape:export-ydpi="96" />
        <path
           style="display:inline;opacity:1;fill:#fffafa;fill-opacity:1;fill-rule:nonzero;stroke:none;stroke-width:0.47584864;stroke-linecap:round;stroke-linejoin:miter;stroke-miterlimit:4;stroke-dasharray:none;stroke-dashoffset:0;stroke-opacity:1;paint-order:normal"
           d="m 64.090841,179.35194 45.861389,0.0683 c 0.60652,-1.62519 0.46364,-3.2504 0.66574,-4.87559 H 63.265991 c 0.13671,1.64192 0.0887,3.33663 0.82485,4.80727 z"
           id="path1743"
           inkscape:connector-curvature="0"
           sodipodi:nodetypes="ccccc"
           inkscape:export-xdpi="96"
           inkscape:export-ydpi="96" />
        <path
           style="display:inline;opacity:1;fill:#f08080;fill-opacity:1;fill-rule:nonzero;stroke:none;stroke-width:0.27055767;stroke-linecap:round;stroke-linejoin:miter;stroke-miterlimit:4;stroke-dasharray:none;stroke-dashoffset:0;stroke-opacity:1;paint-order:normal"
           clip-path="none"
           d="m 87.010451,185.62029 a 18.628812,12.576139 0 0 0 -12.40505,3.21448 23.685404,15.989798 0 0 0 12.40505,2.38294 23.685404,15.989798 0 0 0 12.39925,-2.38954 18.628812,12.576139 0 0 0 -12.39925,-3.20788 z"
           id="path1745"
           inkscape:connector-curvature="0"
           inkscape:export-xdpi="96"
           inkscape:export-ydpi="96" />
        <ellipse
           style="display:inline;opacity:1;fill:#ffdab9;fill-opacity:1;fill-rule:nonzero;stroke:none;stroke-width:0.47329682;stroke-linecap:round;stroke-linejoin:miter;stroke-miterlimit:4;stroke-dasharray:none;stroke-dashoffset:0;stroke-opacity:1;paint-order:normal"
           id="ellipse1747"
           cx="136.80606"
           cy="167.24684"
           rx="2.5367136"
           ry="3.8654678"
           inkscape:export-xdpi="96"
           inkscape:export-ydpi="96" />
        <path
           style="display:inline;opacity:1;fill:#ffdab9;fill-opacity:1;fill-rule:nonzero;stroke:none;stroke-width:0.35952613;stroke-linecap:round;stroke-linejoin:miter;stroke-miterlimit:4;stroke-dasharray:none;stroke-dashoffset:0;stroke-opacity:1;paint-order:normal"
           d="m 135.98876,168.067 c -0.67133,-0.17524 -0.8296,-0.64804 -0.65436,-1.31937 0.17524,-0.67132 0.86151,-1.07349 1.53284,-0.89824"
           id="path1749"
           inkscape:connector-curvature="0"
           sodipodi:nodetypes="csc"
           inkscape:export-xdpi="96"
           inkscape:export-ydpi="96" />
        <path
           style="display:inline;opacity:1;fill:#cd853f;fill-opacity:1;fill-rule:nonzero;stroke:none;stroke-width:0.26584864;stroke-linecap:round;stroke-linejoin:miter;stroke-miterlimit:4;stroke-dasharray:none;stroke-dashoffset:0;stroke-opacity:1;paint-order:normal"
           d="m 93.891731,259.19084 0.91575,0.78945 2.89995,-0.0574 1.67082,-0.18455 c 0.19761,0.0135 -2.24159,4.89773 -4.53574,4.64924 -2.24087,-0.24273 -1.52291,-5.05359 -0.95078,-5.19663 z"
           id="path1751"
           inkscape:connector-curvature="0"
           sodipodi:nodetypes="ccccsc"
           inkscape:export-xdpi="96"
           inkscape:export-ydpi="96" />
        <path
           style="display:inline;opacity:1;fill:#ff6347;fill-opacity:1;fill-rule:nonzero;stroke:#ff6347;stroke-width:0.71905226;stroke-linecap:round;stroke-linejoin:miter;stroke-miterlimit:4;stroke-dasharray:none;stroke-dashoffset:0;stroke-opacity:1"
           d="m 111.05284,153.34251 1.73945,7.92421"
           id="path1753"
           inkscape:connector-curvature="0"
           inkscape:export-xdpi="96"
           inkscape:export-ydpi="96" />
        <path
           inkscape:connector-curvature="0"
           id="path1755"
           d="m 119.84677,153.34251 -1.73946,7.92421"
           style="display:inline;opacity:1;fill:#ff6347;fill-opacity:1;fill-rule:nonzero;stroke:#ff6347;stroke-width:0.71905226;stroke-linecap:round;stroke-linejoin:miter;stroke-miterlimit:4;stroke-dasharray:none;stroke-dashoffset:0;stroke-opacity:1"
           inkscape:export-xdpi="96"
           inkscape:export-ydpi="96" />
        <path
           style="display:inline;opacity:1;fill:#ff6347;fill-opacity:1;fill-rule:nonzero;stroke:#ff6347;stroke-width:0.71905226;stroke-linecap:round;stroke-linejoin:miter;stroke-miterlimit:4;stroke-dasharray:none;stroke-dashoffset:0;stroke-opacity:1"
           d="m 115.36477,152.76501 -0.0232,8.11286"
           id="path1757"
           inkscape:connector-curvature="0"
           inkscape:export-xdpi="96"
           inkscape:export-ydpi="96" />
        <path
           inkscape:connector-curvature="0"
           id="path1759"
           d="m 115.28331,158.59238 c -3.54155,0.294 -4.97999,4.39564 -5.06999,7.45675 -0.12243,3.23592 1.01542,7.54638 4.60112,8.38734 3.41111,0.32254 5.23053,-3.50483 5.52253,-6.38337 0.3794,-3.4028 -0.46555,-7.86067 -3.98543,-9.29895 -0.34892,-0.1077 -0.70329,-0.16063 -1.06823,-0.16177 z"
           style="display:inline;opacity:1;fill:#32cd32;fill-opacity:1;fill-rule:nonzero;stroke:none;stroke-width:0.35952613;stroke-linecap:round;stroke-linejoin:miter;stroke-miterlimit:4;stroke-dasharray:none;stroke-dashoffset:0;stroke-opacity:1;paint-order:normal"
           inkscape:export-xdpi="96"
           inkscape:export-ydpi="96" />
        <path
           style="display:inline;opacity:1;fill:#ff4500;fill-opacity:1;fill-rule:nonzero;stroke:none;stroke-width:0.55373275;stroke-linecap:round;stroke-linejoin:bevel;stroke-miterlimit:4;stroke-dasharray:none;stroke-dashoffset:0;stroke-opacity:1;paint-order:normal"
           d="m 114.10344,109.35296 -4.35859,6.65787 -0.35686,-0.0981 c -9.788929,-2.72634 -19.390099,-3.29688 -31.203329,-3.18629 -16.79906,0.15726 -35.9714,6.04808 -44.0771,16.91651 -5.32253,7.13664 -8.82761,14.38818 -6.87464,27.75166 -0.0729,2.55761 1.88367,7.56429 4.15452,11.7917 0.34481,0.64189 -3.12523,0.74495 -2.75868,1.42189 0.31735,0.58605 3.42247,0.0764 3.82843,0.64336 3.25226,4.54252 6.23282,9.47426 8.36217,11.21951 0.5467,0.44807 -1.70191,-4.11099 -3.40225,-7.61052 -0.98545,-2.02818 -1.99922,-3.52421 -2.15571,-3.74106 2.17915,-0.67623 13.12274,-3.97425 13.12274,-3.97425 3.89036,-1.25625 12.54294,-6.93084 12.54294,-6.93084 5.75211,-0.23602 9.0662,-1.23745 14.17609,-3.98758 16.58921,-8.92827 18.59084,-14.38887 28.072209,-16.37096 4.24142,-0.88668 12.3806,-0.89371 13.101,0.4032 2.95663,5.32281 14.60177,16.79804 17.12016,21.85243 1.68398,3.37973 3.50405,-0.81759 5.29401,1.76993 0.004,0 4.50049,-10.75369 2.77447,-20.28757 -0.93288,-5.15291 -3.88533,-13.20341 -9.6323,-17.47334 -6.46675,-4.80472 -12.11709,-7.34206 -19.73999,-9.46515 l -0.004,-0.001 z m 20.72361,62.03014 c 0.0563,0.075 2.53144,7.1066 2.53144,7.1066 l 0.9188,-7.1066 z"
           id="path1761"
           inkscape:connector-curvature="0"
           inkscape:export-xdpi="96"
           inkscape:export-ydpi="96" />
        <path
           inkscape:connector-curvature="0"
           id="path1763"
           d="m 75.169555,200.9166 1.403165,2.13816 2.939966,1.9377 0.935442,2.53906 1.135896,9.08716 1.336347,4.87768 2.472242,12.82893 0.868628,13.22984 6.414468,-1.20271 -3.80859,-22.71791 2.00452,-12.6953 0.80181,-5.21176 4.744034,-4.27631 1.135894,-1.73725 -7.349911,1.80407 -6.147199,0.73499 -7.750816,-1.67044 z"
           style="display:inline;fill:#6b8e23;fill-opacity:1;stroke:none;stroke-width:0.18603095px;stroke-linecap:butt;stroke-linejoin:miter;stroke-opacity:1" />
        <path
           sodipodi:nodetypes="ccccccccc"
           inkscape:connector-curvature="0"
           id="path1765"
           d="m 68.224703,198.63169 c 0.975139,3.00656 1.380829,6.33851 3.496279,8.69346 1.38361,0.0877 2.686644,-0.0959 3.96875,-0.75596 3.879133,5.88126 5.021581,10.85028 7.46503,16.25298 -1.081841,-5.60937 -2.780892,-11.37305 -3.212798,-16.81994 -0.744673,-1.19115 -1.530355,-2.37058 -3.496278,-3.2128 l -2.740329,-2.83482 -5.480654,-2.07887 z"
           style="display:inline;opacity:1;vector-effect:none;fill:none;fill-opacity:1;stroke:#8b4513;stroke-width:0.71343458;stroke-linecap:round;stroke-linejoin:miter;stroke-miterlimit:4;stroke-dasharray:none;stroke-dashoffset:0;stroke-opacity:1" />
        <path
           sodipodi:nodetypes="cc"
           inkscape:connector-curvature="0"
           id="path1767"
           d="m 83.154762,222.63318 c 2.154397,8.95488 2.141866,17.63889 3.212799,26.45833"
           style="display:inline;opacity:1;vector-effect:none;fill:none;fill-opacity:1;stroke:#8b4513;stroke-width:0.71343458;stroke-linecap:round;stroke-linejoin:miter;stroke-miterlimit:4;stroke-dasharray:none;stroke-dashoffset:0;stroke-opacity:1" />
        <path
           style="display:inline;opacity:1;vector-effect:none;fill:none;fill-opacity:1;stroke:#8b4513;stroke-width:0.71343458;stroke-linecap:round;stroke-linejoin:miter;stroke-miterlimit:4;stroke-dasharray:none;stroke-dashoffset:0;stroke-opacity:1"
           d="m 102.67041,198.65211 c -0.87244,3.03795 -1.1647,6.38176 -3.19892,8.80722 -1.379832,0.13466 -2.688351,-0.005 -3.992141,-0.62069 -3.677088,6.00965 -4.650062,11.01462 -6.908553,16.49721 0.890648,-5.64288 2.392906,-11.46096 2.639514,-16.91938 0.703775,-1.21576 1.448935,-2.4212 3.38511,-3.32972 l 2.642439,-2.92629 5.406861,-2.26386 z"
           id="path1769"
           inkscape:connector-curvature="0"
           sodipodi:nodetypes="ccccccccc" />
        <path
           sodipodi:nodetypes="cc"
           style="display:inline;opacity:1;vector-effect:none;fill:none;fill-opacity:1;stroke:#8b4513;stroke-width:0.71343458;stroke-linecap:round;stroke-linejoin:miter;stroke-miterlimit:4;stroke-dasharray:none;stroke-dashoffset:0;stroke-opacity:1"
           d="m 88.613809,223.01926 c 0.844407,8.74288 1.472773,16.72778 4.724701,25.2299"
           id="path1771"
           inkscape:connector-curvature="0" />
        <path
           inkscape:connector-curvature="0"
           id="path1773"
           d="m 86.194423,247.28786 5.980154,-1.00226"
           style="display:inline;opacity:1;vector-effect:none;fill:none;fill-opacity:1;stroke:#8b4513;stroke-width:0.71343458;stroke-linecap:round;stroke-linejoin:miter;stroke-miterlimit:4;stroke-dasharray:none;stroke-dashoffset:0;stroke-opacity:1" />
        <path
           sodipodi:nodetypes="cscccsc"
           inkscape:connector-curvature="0"
           id="path1775"
           d="m 67.957151,201.89014 c 0,0 -16.109821,31.25464 -6.8599,42.01684 5.02695,5.84881 14.936195,6.51588 25.429687,5.30497 m 7.118335,-1.06728 c 10.452367,-1.89065 19.472827,-4.80934 19.472827,-4.80934 0,0 -7.53731,-23.08771 -4.89331,-35.57853 0.77185,-3.64638 -5.15866,-10.39428 -5.15866,-10.39428"
           style="opacity:1;fill:none;fill-opacity:1;fill-rule:nonzero;stroke:#8b4513;stroke-width:0.71343458;stroke-linecap:round;stroke-linejoin:miter;stroke-miterlimit:4;stroke-dasharray:none;stroke-dashoffset:0;stroke-opacity:1"
           inkscape:export-xdpi="96"
           inkscape:export-ydpi="96" />
        <path
           style="opacity:1;fill:none;fill-opacity:1;fill-rule:nonzero;stroke:#8b4513;stroke-width:0.71343458;stroke-linecap:round;stroke-linejoin:miter;stroke-miterlimit:4;stroke-dasharray:none;stroke-dashoffset:0;stroke-opacity:1"
           d="m 64.955941,246.90818 c 1.57957,2.12868 -8.76625,17.24956 -4.57326,17.57849 6.15002,0.48244 9.29837,-15.80099 9.29837,-15.80099"
           id="path1777"
           inkscape:connector-curvature="0"
           sodipodi:nodetypes="csc"
           inkscape:export-xdpi="96"
           inkscape:export-ydpi="96" />
        <path
           style="opacity:1;fill:none;fill-opacity:1;fill-rule:nonzero;stroke:#8b4513;stroke-width:0.71343458;stroke-linecap:round;stroke-linejoin:miter;stroke-miterlimit:4;stroke-dasharray:none;stroke-dashoffset:0;stroke-opacity:1"
           d="m 67.923441,197.96065 c 0,0 -6.69453,9.80458 -11.25654,9.56031 -3.06115,-0.1639 -3.79926,-8.14591 -6.43115,-6.57405 -4.66985,2.78901 -0.41833,14.26053 4.85909,15.57768 5.32739,1.32961 8.8607,-5.71659 8.8607,-5.71659"
           id="path1779"
           inkscape:connector-curvature="0"
           sodipodi:nodetypes="csssc"
           inkscape:export-xdpi="96"
           inkscape:export-ydpi="96" />
        <path
           style="opacity:1;fill:none;fill-opacity:1;fill-rule:nonzero;stroke:#8b4513;stroke-width:0.71343458;stroke-linecap:round;stroke-linejoin:miter;stroke-miterlimit:4;stroke-dasharray:none;stroke-dashoffset:0;stroke-opacity:1"
           d="m 108.33048,207.32089 c 0,0 8.74044,12.72733 4.57326,15.72058 -1.53455,1.10224 -4.93054,-4.28742 -4.93054,-4.28742"
           id="path1781"
           inkscape:connector-curvature="0"
           sodipodi:nodetypes="csc"
           inkscape:export-xdpi="96"
           inkscape:export-ydpi="96" />
        <path
           style="opacity:1;fill:none;fill-opacity:1;fill-rule:nonzero;stroke:#8b4513;stroke-width:0.71343458;stroke-linecap:round;stroke-linejoin:miter;stroke-miterlimit:4;stroke-dasharray:none;stroke-dashoffset:0;stroke-opacity:1"
           d="m 93.656821,259.18958 c 1.21076,2.04994 4.05666,0.47124 5.82245,0.57719"
           id="path1783"
           inkscape:connector-curvature="0"
           sodipodi:nodetypes="cc"
           inkscape:export-xdpi="96"
           inkscape:export-ydpi="96" />
        <path
           style="opacity:1;fill:none;fill-opacity:1;fill-rule:nonzero;stroke:#8b4513;stroke-width:0.71343458;stroke-linecap:round;stroke-linejoin:miter;stroke-miterlimit:4;stroke-dasharray:none;stroke-dashoffset:0;stroke-opacity:1;paint-order:normal"
           d="m 60.420081,259.64925 c 2.01225,0.97905 2.46244,1.53699 5.05554,1.00131"
           id="path1785"
           inkscape:connector-curvature="0"
           sodipodi:nodetypes="cc"
           inkscape:export-xdpi="96"
           inkscape:export-ydpi="96" />
        <path
           style="opacity:1;fill:#b22222;fill-opacity:1;fill-rule:nonzero;stroke:#8b4513;stroke-width:0.71343458;stroke-linecap:round;stroke-linejoin:miter;stroke-miterlimit:4;stroke-dasharray:none;stroke-dashoffset:0;stroke-opacity:1;paint-order:normal"
           d="m 50.243911,211.88819 4.31072,-5.74381"
           id="path1787"
           inkscape:connector-curvature="0"
           inkscape:export-xdpi="96"
           inkscape:export-ydpi="96" />
        <path
           style="opacity:1;fill:none;fill-opacity:1;fill-rule:nonzero;stroke:#8b4513;stroke-width:0.71343458;stroke-linecap:round;stroke-linejoin:miter;stroke-miterlimit:4;stroke-dasharray:none;stroke-dashoffset:0;stroke-opacity:1;paint-order:normal"
           d="m 112.37813,214.74598 -2.5385,6.36096"
           id="path1789"
           inkscape:connector-curvature="0"
           inkscape:export-xdpi="96"
           inkscape:export-ydpi="96" />
        <path
           inkscape:connector-curvature="0"
           id="path1791"
           d="m 63.375851,174.54462 a 23.685404,15.989798 0 0 0 -0.0508,0.68332 23.685404,15.989798 0 0 0 23.68545,15.98977 23.685404,15.989798 0 0 0 23.685469,-15.98977 23.685404,15.989798 0 0 0 -0.0358,-0.68332 z"
           style="opacity:1;fill:none;fill-opacity:1;fill-rule:nonzero;stroke:#8b4513;stroke-width:0.71343458;stroke-linecap:round;stroke-linejoin:miter;stroke-miterlimit:4;stroke-dasharray:none;stroke-dashoffset:0;stroke-opacity:1;paint-order:normal"
           inkscape:export-xdpi="96"
           inkscape:export-ydpi="96" />
        <path
           style="opacity:1;fill:none;fill-opacity:1;fill-rule:nonzero;stroke:#8b4513;stroke-width:0.71343458;stroke-linecap:round;stroke-linejoin:miter;stroke-miterlimit:4;stroke-dasharray:none;stroke-dashoffset:0;stroke-opacity:1;paint-order:normal"
           d="M 64.233361,179.53106 H 109.79798"
           id="path1793"
           inkscape:connector-curvature="0"
           sodipodi:nodetypes="cc"
           inkscape:export-xdpi="96"
           inkscape:export-ydpi="96" />
        <path
           style="opacity:1;fill:none;fill-opacity:1;fill-rule:nonzero;stroke:#8b4513;stroke-width:0.71343458;stroke-linecap:round;stroke-linejoin:miter;stroke-miterlimit:4;stroke-dasharray:none;stroke-dashoffset:0;stroke-opacity:1;paint-order:normal"
           d="m 69.065081,174.54468 v 4.85159"
           id="path1795"
           inkscape:connector-curvature="0"
           inkscape:export-xdpi="96"
           inkscape:export-ydpi="96" />
        <path
           inkscape:connector-curvature="0"
           id="path1797"
           d="m 76.376661,174.54468 v 4.85159"
           style="opacity:1;fill:none;fill-opacity:1;fill-rule:nonzero;stroke:#8b4513;stroke-width:0.71343458;stroke-linecap:round;stroke-linejoin:miter;stroke-miterlimit:4;stroke-dasharray:none;stroke-dashoffset:0;stroke-opacity:1;paint-order:normal"
           inkscape:export-xdpi="96"
           inkscape:export-ydpi="96" />
        <path
           style="opacity:1;fill:none;fill-opacity:1;fill-rule:nonzero;stroke:#8b4513;stroke-width:0.71343458;stroke-linecap:round;stroke-linejoin:miter;stroke-miterlimit:4;stroke-dasharray:none;stroke-dashoffset:0;stroke-opacity:1;paint-order:normal"
           d="m 83.209901,174.54468 v 4.85159"
           id="path1799"
           inkscape:connector-curvature="0"
           inkscape:export-xdpi="96"
           inkscape:export-ydpi="96" />
        <path
           inkscape:connector-curvature="0"
           id="path1801"
           d="m 90.453141,174.54468 v 4.85159"
           style="opacity:1;fill:none;fill-opacity:1;fill-rule:nonzero;stroke:#8b4513;stroke-width:0.71343458;stroke-linecap:round;stroke-linejoin:miter;stroke-miterlimit:4;stroke-dasharray:none;stroke-dashoffset:0;stroke-opacity:1;paint-order:normal"
           inkscape:export-xdpi="96"
           inkscape:export-ydpi="96" />
        <path
           style="opacity:1;fill:none;fill-opacity:1;fill-rule:nonzero;stroke:#8b4513;stroke-width:0.71343458;stroke-linecap:round;stroke-linejoin:miter;stroke-miterlimit:4;stroke-dasharray:none;stroke-dashoffset:0;stroke-opacity:1;paint-order:normal"
           d="m 97.149721,174.54468 v 4.85159"
           id="path1803"
           inkscape:connector-curvature="0"
           inkscape:export-xdpi="96"
           inkscape:export-ydpi="96" />
        <path
           inkscape:connector-curvature="0"
           id="path1805"
           d="m 103.64131,174.54468 v 4.85159"
           style="opacity:1;fill:none;fill-opacity:1;fill-rule:nonzero;stroke:#8b4513;stroke-width:0.71343458;stroke-linecap:round;stroke-linejoin:miter;stroke-miterlimit:4;stroke-dasharray:none;stroke-dashoffset:0;stroke-opacity:1;paint-order:normal"
           inkscape:export-xdpi="96"
           inkscape:export-ydpi="96" />
        <path
           style="opacity:1;fill:none;fill-opacity:1;fill-rule:nonzero;stroke:#8b4513;stroke-width:0.71343458;stroke-linecap:round;stroke-linejoin:miter;stroke-miterlimit:4;stroke-dasharray:none;stroke-dashoffset:0;stroke-opacity:1;paint-order:normal"
           d="m 134.95559,164.83719 c 0,0 0.12664,-1.63571 1.65376,-1.63571 1.52712,0 2.76508,1.8356 2.76508,4.09994 0,2.26435 -1.23796,4.09996 -2.76508,4.09996 -1.52712,0 -2.23358,-2.55376 -2.23358,-2.55376"
           id="path1807"
           inkscape:connector-curvature="0"
           sodipodi:nodetypes="ccscc"
           inkscape:export-xdpi="96"
           inkscape:export-ydpi="96" />
        <path
           style="display:inline;opacity:1;fill:none;fill-opacity:1;fill-rule:nonzero;stroke:#8b4513;stroke-width:0.71338981;stroke-linecap:round;stroke-linejoin:miter;stroke-miterlimit:4;stroke-dasharray:none;stroke-dashoffset:0;stroke-opacity:1"
           d="m 35.387461,171.01042 c 9.4243,17.69239 37.12223,31.27443 49.50053,31.27443 12.5266,0 40.522279,-13.50115 49.835319,-31.54158"
           id="path1809"
           inkscape:connector-curvature="0"
           sodipodi:nodetypes="csc"
           inkscape:export-xdpi="96"
           inkscape:export-ydpi="96" />
        <path
           style="display:inline;opacity:1;fill:none;fill-opacity:1;fill-rule:nonzero;stroke:#8b4513;stroke-width:0.71343458;stroke-linecap:round;stroke-linejoin:miter;stroke-miterlimit:4;stroke-dasharray:none;stroke-dashoffset:0;stroke-opacity:1;paint-order:normal"
           d="m 52.286991,165.65373 c -0.009,0.1332 -0.0157,0.26545 -0.0196,0.39531 -0.12243,3.23592 1.01526,7.54657 4.60096,8.38753 3.41111,0.32255 5.23064,-3.505 5.52264,-6.38353 0.27041,-2.42522 -0.0821,-5.38553 -1.58069,-7.40746"
           id="path1811"
           inkscape:connector-curvature="0"
           inkscape:export-xdpi="96"
           inkscape:export-ydpi="96"
           sodipodi:nodetypes="ccccc" />
        <path
           inkscape:connector-curvature="0"
           id="path1813"
           d="m 115.28331,158.59238 c -3.54155,0.294 -4.97999,4.39564 -5.06999,7.45675 -0.12243,3.23594 1.01543,7.54638 4.60112,8.38734 3.41111,0.32256 5.23053,-3.50483 5.52253,-6.38336 0.3794,-3.40279 -0.46555,-7.86067 -3.98543,-9.29896 -0.34892,-0.1077 -0.70329,-0.16063 -1.06823,-0.16177 z"
           style="display:inline;opacity:1;fill:none;fill-opacity:1;fill-rule:nonzero;stroke:#8b4513;stroke-width:0.71343458;stroke-linecap:round;stroke-linejoin:miter;stroke-miterlimit:4;stroke-dasharray:none;stroke-dashoffset:0;stroke-opacity:1;paint-order:normal"
           inkscape:export-xdpi="96"
           inkscape:export-ydpi="96" />
        <path
           style="display:inline;opacity:1;fill:none;fill-opacity:1;fill-rule:nonzero;stroke:#8b4513;stroke-width:0.71343458;stroke-linecap:round;stroke-linejoin:miter;stroke-miterlimit:4;stroke-dasharray:none;stroke-dashoffset:0;stroke-opacity:1;paint-order:normal"
           d="m 135.98876,168.067 c -0.67133,-0.17524 -0.8296,-0.64802 -0.65436,-1.31937 0.17525,-0.67132 0.86152,-1.07349 1.53284,-0.89824"
           id="path1815"
           inkscape:connector-curvature="0"
           sodipodi:nodetypes="csc"
           inkscape:export-xdpi="96"
           inkscape:export-ydpi="96" />
        <path
           style="display:inline;opacity:1;fill:none;fill-opacity:1;fill-rule:nonzero;stroke:#8b4513;stroke-width:0.71343458;stroke-linecap:round;stroke-linejoin:miter;stroke-miterlimit:4;stroke-dasharray:none;stroke-dashoffset:0;stroke-opacity:1"
           d="m 96.397131,247.68529 c 1.03965,3.58021 -6.16427,15.05976 -1.71498,16.65847 4.168,1.49764 9.762839,-17.02469 9.334099,-18.38238"
           id="path1817"
           inkscape:connector-curvature="0"
           sodipodi:nodetypes="csc"
           inkscape:export-xdpi="96"
           inkscape:export-ydpi="96" />
        <path
           style="display:inline;opacity:1;fill:none;fill-opacity:1;fill-rule:nonzero;stroke:#8b4513;stroke-width:0.71343458;stroke-linecap:round;stroke-linejoin:miter;stroke-miterlimit:4;stroke-dasharray:none;stroke-dashoffset:0;stroke-opacity:1;paint-order:normal"
           clip-path="none"
           d="m 87.010451,185.62029 a 18.628812,12.576139 0 0 0 -12.40505,3.21448 23.685404,15.989798 0 0 0 12.40505,2.38294 23.685404,15.989798 0 0 0 12.39925,-2.38954 18.628812,12.576139 0 0 0 -12.39925,-3.20788 z"
           id="path1819"
           inkscape:connector-curvature="0"
           inkscape:export-xdpi="96"
           inkscape:export-ydpi="96" />
        <path
           style="display:inline;opacity:1;fill:none;fill-opacity:1;fill-rule:nonzero;stroke:#8b4513;stroke-width:0.55373275;stroke-linecap:round;stroke-linejoin:bevel;stroke-miterlimit:4;stroke-dasharray:none;stroke-dashoffset:0;stroke-opacity:1;paint-order:normal"
           d="m 83.336361,135.34335 c -5.58959,17.91933 -37.87029,38.60719 -56.5535,35.32719 14.66836,-3.16517 27.11911,-9.19471 32.252,-24.67653"
           id="path1821"
           inkscape:connector-curvature="0"
           sodipodi:nodetypes="ccc"
           inkscape:export-xdpi="96"
           inkscape:export-ydpi="96" />
        <path
           style="opacity:1;fill:none;fill-opacity:1;fill-rule:nonzero;stroke:#8b4513;stroke-width:0.55373275;stroke-linecap:round;stroke-linejoin:bevel;stroke-miterlimit:4;stroke-dasharray:none;stroke-dashoffset:0;stroke-opacity:1;paint-order:normal"
           d="m 61.134991,160.2449 c 19.19857,0.71398 26.13538,-18.57713 32.85203,-29.70185"
           id="path1823"
           inkscape:connector-curvature="0"
           sodipodi:nodetypes="cc"
           inkscape:export-xdpi="96"
           inkscape:export-ydpi="96" />
        <path
           style="opacity:1;fill:none;fill-opacity:1;fill-rule:nonzero;stroke:#8b4513;stroke-width:0.55373275;stroke-linecap:round;stroke-linejoin:bevel;stroke-miterlimit:4;stroke-dasharray:none;stroke-dashoffset:0;stroke-opacity:1;paint-order:normal"
           d="m 37.495651,174.42454 c 1.33111,4.42336 3.98165,8.35194 6.38827,12.37199 -0.59051,-0.73814 -6.58736,-7.60348 -11.29489,-15.61381 m -1.11377,-1.69716 c -2.58987,-4.40695 -4.04558,-8.16596 -4.24237,-11.49081 -0.87018,-14.70173 1.38634,-24.41088 11.55071,-33.30206 11.20631,-9.80262 36.94835,-13.5783 51.75321,-12.00075 6.81277,0.72594 12.242309,1.46457 18.782169,3.23415 m 2.83745,0.84858 c 13.23512,3.58122 23.33698,9.30489 27.58341,19.91876 6.49057,16.22302 -1.90326,22.64613 -0.56362,29.10493"
           id="path1825"
           inkscape:connector-curvature="0"
           sodipodi:nodetypes="ccccsssccsc"
           inkscape:export-xdpi="96"
           inkscape:export-ydpi="96" />
        <path
           style="opacity:1;fill:none;fill-opacity:1;fill-rule:nonzero;stroke:#8b4513;stroke-width:0.55373275;stroke-linecap:round;stroke-linejoin:bevel;stroke-miterlimit:4;stroke-dasharray:none;stroke-dashoffset:0;stroke-opacity:1;paint-order:normal"
           d="m 109.06503,117.57368 c 1.01907,-3.737 3.80999,-6.80955 6.36436,-9.97082 -1.71227,3.70551 -4.07366,7.3139 -3.18218,10.81941"
           id="path1827"
           inkscape:connector-curvature="0"
           sodipodi:nodetypes="ccc"
           inkscape:export-xdpi="96"
           inkscape:export-ydpi="96" />
        <path
           style="opacity:1;fill:none;fill-opacity:1;fill-rule:nonzero;stroke:#8b4513;stroke-width:0.55373275;stroke-linecap:round;stroke-linejoin:bevel;stroke-miterlimit:4;stroke-dasharray:none;stroke-dashoffset:0;stroke-opacity:1;paint-order:normal"
           d="m 77.985771,154.80516 c 12.15112,-6.62221 22.333059,-19.57395 38.080049,-14.63802"
           id="path1829"
           inkscape:connector-curvature="0"
           sodipodi:nodetypes="cc"
           inkscape:export-xdpi="96"
           inkscape:export-ydpi="96" />
        <path
           style="opacity:1;fill:none;fill-opacity:1;fill-rule:nonzero;stroke:#8b4513;stroke-width:0.55373275;stroke-linecap:round;stroke-linejoin:bevel;stroke-miterlimit:4;stroke-dasharray:none;stroke-dashoffset:0;stroke-opacity:1;paint-order:normal"
           d="m 114.47474,136.13639 c 2.87778,8.34213 13.66063,18.60658 20.3788,27.83495"
           id="path1831"
           inkscape:connector-curvature="0"
           sodipodi:nodetypes="cc"
           inkscape:export-xdpi="96"
           inkscape:export-ydpi="96" />
        <path
           style="opacity:1;fill:none;fill-opacity:1;fill-rule:nonzero;stroke:#8b4513;stroke-width:0.55373275;stroke-linecap:round;stroke-linejoin:bevel;stroke-miterlimit:4;stroke-dasharray:none;stroke-dashoffset:0;stroke-opacity:1;paint-order:normal"
           d="m 130.27954,139.2125 c -2.38541,5.99679 2.98067,17.33956 4.6672,24.60883"
           id="path1833"
           inkscape:connector-curvature="0"
           sodipodi:nodetypes="cc"
           inkscape:export-xdpi="96"
           inkscape:export-ydpi="96" />
        <path
           style="opacity:1;fill:none;fill-opacity:1;fill-rule:nonzero;stroke:#8b4513;stroke-width:0.55373275;stroke-linecap:round;stroke-linejoin:bevel;stroke-miterlimit:4;stroke-dasharray:none;stroke-dashoffset:0;stroke-opacity:1;paint-order:normal"
           d="m 136.21961,147.80438 c -1.67156,2.77051 -1.41109,9.16359 -0.84857,16.12303"
           id="path1835"
           inkscape:connector-curvature="0"
           sodipodi:nodetypes="cc"
           inkscape:export-xdpi="96"
           inkscape:export-ydpi="96" />
        <path
           style="opacity:1;fill:none;fill-opacity:1;fill-rule:nonzero;stroke:#8b4513;stroke-width:0.55362809;stroke-linecap:round;stroke-linejoin:round;stroke-miterlimit:4;stroke-dasharray:none;stroke-dashoffset:0;stroke-opacity:1;paint-order:normal"
           d="m 134.86456,171.04555 2.47515,7.53797 c 0.37208,-2.7388 0.14142,-5.14277 1.31258,-8.32551"
           id="path1837"
           inkscape:connector-curvature="0"
           sodipodi:nodetypes="ccc"
           inkscape:export-xdpi="96"
           inkscape:export-ydpi="96" />
      </g>
    </g>
  </g>
</svg>
