<?xml version="1.0" encoding="UTF-8" standalone="no"?>
<!-- Created with Inkscape (http://www.inkscape.org/) -->

<svg
   xmlns:dc="http://purl.org/dc/elements/1.1/"
   xmlns:cc="http://creativecommons.org/ns#"
   xmlns:rdf="http://www.w3.org/1999/02/22-rdf-syntax-ns#"
   xmlns:svg="http://www.w3.org/2000/svg"
   xmlns="http://www.w3.org/2000/svg"
   xmlns:sodipodi="http://sodipodi.sourceforge.net/DTD/sodipodi-0.dtd"
   xmlns:inkscape="http://www.inkscape.org/namespaces/inkscape"
   width="3000"
   height="1200"
   viewBox="0 0 793.74996 317.50001"
   version="1.1"
   id="svg8"
   sodipodi:docname="LockeDataTextNew.svg"
   inkscape:version="0.92.1 r15371">
  <defs
     id="defs2" />
  <sodipodi:namedview
     id="base"
     pagecolor="#ffffff"
     bordercolor="#666666"
     borderopacity="1.0"
     inkscape:pageopacity="0.0"
     inkscape:pageshadow="2"
     inkscape:zoom="0.35"
     inkscape:cx="400"
     inkscape:cy="560"
     inkscape:document-units="px"
     inkscape:current-layer="layer1"
     showgrid="false"
     units="px"
     inkscape:showpageshadow="false"
     borderlayer="true"
     inkscape:snap-path-clip="true"
     inkscape:snap-path-mask="true"
     inkscape:pagecheckerboard="true"
     inkscape:object-nodes="false" />
  <metadata
     id="metadata5">
    <rdf:RDF>
      <cc:Work
         rdf:about="">
        <dc:format>image/svg+xml</dc:format>
        <dc:type
           rdf:resource="http://purl.org/dc/dcmitype/StillImage" />
        <dc:title></dc:title>
        <dc:creator>
          <cc:Agent>
            <dc:title>Oz Locke</dc:title>
          </cc:Agent>
        </dc:creator>
        <dc:rights>
          <cc:Agent>
            <dc:title>All rights retained by Cuddly Cthulhu Creatives unless provable otherwise (transferal of rights will usualy be provided by email)</dc:title>
          </cc:Agent>
        </dc:rights>
        <dc:publisher>
          <cc:Agent>
            <dc:title>Cuddly Cthulhu Creatives</dc:title>
          </cc:Agent>
        </dc:publisher>
      </cc:Work>
    </rdf:RDF>
  </metadata>
  <g
     inkscape:label="Layer 1"
     inkscape:groupmode="layer"
     id="layer1"
     transform="translate(0,20.50004)">
    <g
       transform="matrix(0.08237261,0,0,0.08237261,500.45176,-29.683389)"
       id="g1009"
       inkscape:export-xdpi="95.998299"
       inkscape:export-ydpi="95.998299">
      <rect
         style="opacity:1;vector-effect:none;fill:none;fill-opacity:1;stroke:none;stroke-width:44.59204483;stroke-linecap:butt;stroke-linejoin:miter;stroke-miterlimit:4;stroke-dasharray:none;stroke-dashoffset:0;stroke-opacity:1;paint-order:stroke markers fill"
         id="rect991"
         width="9636.0918"
         height="3854.4365"
         x="-6075.4634"
         y="111.48547" />
      <g
         id="g1007"
         transform="translate(-2710.8334,-853.88637)">
        <text
           id="text995"
           y="4100.2397"
           x="3213.978"
           style="font-style:normal;font-variant:normal;font-weight:normal;font-stretch:normal;font-size:1858.36621094px;line-height:1.25;font-family:Roboto;-inkscape-font-specification:Roboto;font-variant-ligatures:normal;font-variant-position:normal;font-variant-caps:normal;font-variant-numeric:normal;font-variant-alternates:normal;font-feature-settings:normal;text-indent:0;text-align:start;text-decoration:none;text-decoration-line:none;text-decoration-style:solid;text-decoration-color:#000000;letter-spacing:0px;word-spacing:0px;text-transform:none;writing-mode:lr-tb;direction:ltr;text-orientation:mixed;dominant-baseline:auto;baseline-shift:baseline;text-anchor:start;white-space:normal;shape-padding:0;opacity:1;vector-effect:none;fill:#ffffff;fill-opacity:1;stroke:none;stroke-width:46.45915604;stroke-linecap:butt;stroke-linejoin:miter;stroke-miterlimit:4;stroke-dasharray:none;stroke-dashoffset:0;stroke-opacity:1;"
           xml:space="preserve"><tspan
             style="font-style:normal;font-variant:normal;font-weight:normal;font-stretch:normal;font-size:1858.36621094px;line-height:1.25;font-family:Arial;-inkscape-font-specification:Arial;font-variant-ligatures:normal;font-variant-position:normal;font-variant-caps:normal;font-variant-numeric:normal;font-variant-alternates:normal;font-feature-settings:normal;text-indent:0;text-align:start;text-decoration:none;text-decoration-line:none;text-decoration-style:solid;text-decoration-color:#000000;letter-spacing:0px;word-spacing:0px;text-transform:none;writing-mode:lr-tb;direction:ltr;text-orientation:mixed;dominant-baseline:auto;baseline-shift:baseline;text-anchor:start;white-space:normal;shape-padding:0;vector-effect:none;fill:#ffffff;fill-opacity:1;stroke:none;stroke-width:46.45915604;stroke-linecap:butt;stroke-linejoin:miter;stroke-miterlimit:4;stroke-dasharray:none;stroke-dashoffset:0;stroke-opacity:1;"
             y="4100.2397"
             x="3213.978"
             id="tspan993"
             sodipodi:role="line">ata</tspan></text>
        <text
           id="text999"
           y="4111.0605"
           x="-2947.696"
           style="font-style:normal;font-variant:normal;font-weight:normal;font-stretch:normal;font-size:1858.36621094px;line-height:1.25;font-family:Cavorting;-inkscape-font-specification:Cavorting;letter-spacing:0px;word-spacing:0px;fill:#ffffff;fill-opacity:1;stroke:none;stroke-width:100;stroke-miterlimit:4;stroke-dasharray:none;paint-order:markers stroke fill;"
           xml:space="preserve"><tspan
             style="font-style:normal;font-variant:normal;font-weight:normal;font-stretch:normal;font-family:Arial;-inkscape-font-specification:Arial;fill:#ffffff;fill-opacity:1;stroke:none;stroke-width:100;stroke-miterlimit:4;stroke-dasharray:none;paint-order:markers stroke fill;"
             y="4111.0605"
             x="-2947.696"
             id="tspan997"
             sodipodi:role="line">Locke</tspan></text>
        <path
           id="path1001"
           d="m 2722.2715,1165.3887 c -109.6608,0.3294 -217.8906,19.0003 -304.5684,52.9062 -267.2828,104.5535 -451.8768,316.7757 -517.3847,620.0879 -25.5882,118.4829 -13.5798,257.1892 -12.377,370.7695 l 0.7598,71.7305 h 463.3086 l -0.2071,-72.7051 c -0.2868,-101.3285 -10.4661,-216.841 3.7032,-281.6914 19.3764,-88.6632 79.0476,-184.2944 161.0527,-242.6367 82.0057,-58.3426 181.6473,-83.509 303.1777,-41.1582 49.0666,17.0992 89.8276,40.9447 127.5547,70.7969 75.0811,59.4062 105.3793,137.7873 118.7559,252.7851 11.3697,97.7456 7.235,218.7588 5.1601,354.1231 h -926.2597 c -91.5068,0 -178.7183,-5.3608 -261.3516,4.3867 -82.6333,9.7476 -166.6526,38.9103 -223.6367,110.8984 -57.954,73.2138 -72.0893,164.9746 -76.6582,257.6719 -4.569,92.6974 1.8887,189.9813 1.8887,279.961 v 90.3242 h 145.0039 v -90.3242 c 0,-96.4552 -6.03,-192.3709 -2.0645,-272.8243 3.9654,-80.4535 19.3866,-141.793 45.5254,-174.8144 27.4589,-34.6888 63.575,-49.4167 126.9336,-56.8906 63.3586,-7.4739 147.9953,-3.3887 244.3633,-3.3887 h 1069.9277 l 0.377,-72.1211 c 0.8375,-160.4736 10.5042,-308.9545 -5.1758,-443.7559 -15.68,-134.8006 -61.468,-261.6402 -172.8125,-349.7402 -48.4333,-38.3233 -104.3742,-71.2059 -169.8106,-94.0098 -164.3244,-57.2637 -320.6878,-21.3586 -434.9511,59.9336 -114.2632,81.2922 -191.1229,203.8561 -218.6524,329.8301 -17.2157,78.7895 -12.8105,164.9421 -9.3535,240.3496 h -172.8418 c -2.0342,-99.4979 -4.081,-199.8415 10.3984,-266.8887 57.0312,-264.0616 199.9836,-426.2808 428.4746,-515.6601 64.2189,-25.1206 159.5294,-42.6663 252.1758,-42.9453 h 0.01 c 63.3907,-0.19 125.7725,7.5442 176.541,23.2051 79.7489,24.5986 150.0474,59.8233 210.5156,102.7167 135.3518,96.0137 228.0312,235.8137 270.2168,432.5782 10.8571,50.6348 9.1387,124.62 9.1387,203.3457 v 393.8672 l 73.2051,-0.709 c 72.1652,-0.7005 124.781,4.41 160.5879,15.8672 35.807,11.4573 56.3464,25.9675 78.7656,57.5273 l 2.8574,4.0215 3.375,3.5976 c -0.8259,-0.8802 10.2225,17.6237 16.377,48.6094 6.1545,30.9858 9.9397,72.9668 11.6328,118.9961 3.3863,92.0589 -1.0625,200.1268 -1.0625,287.9649 -0.028,20.552 -0.056,41.1094 -0.084,61.6621 h 145 c 0.028,-20.5182 0.056,-41.0411 0.084,-61.5586 v -0.049 -0.051 c 0,-82.6723 4.6647,-192.6587 0.9629,-293.295 -1.8509,-50.3181 -5.6589,-98.3464 -14.3125,-141.914 -8.2131,-41.3502 -18.7553,-79.965 -48.1895,-114.0703 -38.2571,-52.8791 -91.1841,-90.3321 -151.2168,-109.541 -41.0241,-13.1266 -84.7646,-19.1544 -132.9824,-21.5137 v -249.4082 c 0,-74.8722 4.4046,-155.554 -12.3613,-233.7461 -48.5631,-226.5106 -163.1157,-403.4128 -328.1035,-520.4492 -73.1954,-51.9215 -157.5716,-93.9831 -251.67,-123.0078 -69.2352,-21.3573 -144.6933,-29.872 -219.7226,-29.6465 z M 1583.5117,4194.4824 c 0.2133,49.4375 2.3116,96.2532 9.668,141.4492 15.1777,93.2491 62.6623,183.174 156.6426,238.6368 77.0779,45.4881 169.9191,44.0595 272.3867,45.0996 102.4676,1.0402 209.8292,-4.5879 278.5879,-4.5879 h 431.1621 v -145.002 h -431.1602 c -76.2242,0 -181.1531,5.5699 -277.1172,4.5957 -95.9641,-0.9741 -187.6938,-17.6273 -200.1601,-24.9843 -59.1974,-34.9356 -76.2026,-69.3597 -87.2207,-137.0528 -5.318,-32.6725 -6.9108,-72.3362 -7.1504,-118.1543 z"
           style="color:#000000;font-style:normal;font-variant:normal;font-weight:normal;font-stretch:normal;font-size:medium;line-height:normal;font-family:sans-serif;font-variant-ligatures:normal;font-variant-position:normal;font-variant-caps:normal;font-variant-numeric:normal;font-variant-alternates:normal;font-feature-settings:normal;text-indent:0;text-align:start;text-decoration:none;text-decoration-line:none;text-decoration-style:solid;text-decoration-color:#000000;letter-spacing:normal;word-spacing:normal;text-transform:none;writing-mode:lr-tb;direction:ltr;text-orientation:mixed;dominant-baseline:auto;baseline-shift:baseline;text-anchor:start;white-space:normal;shape-padding:0;clip-rule:nonzero;display:inline;overflow:visible;visibility:visible;opacity:1;isolation:auto;mix-blend-mode:normal;color-interpolation:sRGB;color-interpolation-filters:linearRGB;solid-color:#000000;solid-opacity:1;vector-effect:none;fill:#e8830c;fill-opacity:1;fill-rule:evenodd;stroke:none;stroke-width:145;stroke-linecap:butt;stroke-linejoin:miter;stroke-miterlimit:4;stroke-dasharray:none;stroke-dashoffset:0;stroke-opacity:1;color-rendering:auto;image-rendering:auto;shape-rendering:auto;text-rendering:auto;enable-background:accumulate"
           inkscape:connector-curvature="0" />
        <text
           xml:space="preserve"
           style="font-style:normal;font-variant:normal;font-weight:normal;font-stretch:condensed;font-size:1858.36621094px;line-height:1.25;font-family:Arial;-inkscape-font-specification:'Arial Condensed';font-variant-ligatures:normal;font-variant-position:normal;font-variant-caps:normal;font-variant-numeric:normal;font-variant-alternates:normal;font-feature-settings:normal;text-indent:0;text-align:start;text-decoration:none;text-decoration-line:none;text-decoration-style:solid;text-decoration-color:#000000;letter-spacing:0px;word-spacing:0px;text-transform:none;writing-mode:lr-tb;direction:ltr;text-orientation:mixed;dominant-baseline:auto;baseline-shift:baseline;text-anchor:start;white-space:normal;shape-padding:0;opacity:1;vector-effect:none;fill:#ffffff;fill-opacity:1;stroke:none;stroke-width:46.45915604;stroke-linecap:butt;stroke-linejoin:miter;stroke-miterlimit:4;stroke-dasharray:none;stroke-dashoffset:0;stroke-opacity:1;"
           x="2166.1194"
           y="4132.8384"
           id="text1005"><tspan
             sodipodi:role="line"
             id="tspan1003"
             x="2166.1194"
             y="4132.8384"
             style="font-style:normal;font-variant:normal;font-weight:normal;font-stretch:condensed;font-size:1858.36621094px;line-height:1.25;font-family:Arial;-inkscape-font-specification:'Arial Condensed';font-variant-ligatures:normal;font-variant-position:normal;font-variant-caps:normal;font-variant-numeric:normal;font-variant-alternates:normal;font-feature-settings:normal;text-indent:0;text-align:start;text-decoration:none;text-decoration-line:none;text-decoration-style:solid;text-decoration-color:#000000;letter-spacing:0px;word-spacing:0px;text-transform:none;writing-mode:lr-tb;direction:ltr;text-orientation:mixed;dominant-baseline:auto;baseline-shift:baseline;text-anchor:start;white-space:normal;shape-padding:0;vector-effect:none;fill:#ffffff;fill-opacity:1;stroke:none;stroke-width:46.45915604;stroke-linecap:butt;stroke-linejoin:miter;stroke-miterlimit:4;stroke-dasharray:none;stroke-dashoffset:0;stroke-opacity:1;">D</tspan></text>
      </g>
    </g>
  </g>
</svg>
